<?xml version="1.0" encoding="UTF-8"?>
<svg width="512px" height="470px" viewBox="0 0 512 470" version="1.1" xmlns="http://www.w3.org/2000/svg" xmlns:xlink="http://www.w3.org/1999/xlink">
    <!-- Generator: Sketch 43 (38999) - http://www.bohemiancoding.com/sketch -->
    <title>noun_838724_cc</title>
    <desc>Created with Sketch.</desc>
    <defs></defs>
    <g id="Page-1" stroke="none" stroke-width="1" fill="none" fill-rule="evenodd">
        <g id="noun_838724_cc" fill-rule="nonzero" fill="#000000">
            <g id="Group">
                <path d="M458.7,181.7 C453.3,181.7 447.9,182.6 442.8,184.3 L394.1,92.3 C397.7,88.9 400.9,85 403.6,80.5 C418.2,55.1 409.6,22.4 384.1,7.7 C375.9,2.9 366.7,0.6 357.4,0.6 C352.8,0.6 348.1,1.1 343.5,2.4 C329.7,6.1 318.3,15 311.3,27.2 C309.4,30.4 307.9,33.8 306.8,37.3 L205.2,37.3 C204.1,33.8 202.6,30.4 200.7,27.2 C193.7,14.9 182.2,6.1 168.5,2.4 C154.7,-1.3 140.3,0.6 128,7.7 C102.5,22.4 93.9,55.2 108.5,80.7 C111.2,85.2 114.4,89 118,92.4 L69.3,184.4 C64.2,182.7 58.8,181.8 53.4,181.8 C23.9,181.7 0,205.6 0,235 C0,264.3 23.9,288.3 53.3,288.3 C58.7,288.3 64.1,287.3 69.2,285.7 L117.9,377.6 C114.3,381 111.1,385 108.4,389.4 C93.8,414.8 102.4,447.5 127.9,462.4 C136.1,467.1 145.2,469.5 154.5,469.5 C159.2,469.5 163.9,468.9 168.5,467.6 C182.3,463.9 193.7,455 200.7,442.9 C202.6,439.6 204.1,436.2 205.2,432.7 L306.7,432.7 C307.8,436.2 309.3,439.6 311.1,442.8 C318.2,455.1 329.7,463.9 343.4,467.7 C348,469 352.7,469.6 357.4,469.6 C366.7,469.6 375.7,467.1 384,462.3 C409.5,447.6 418.1,414.8 403.5,389.5 C400.8,385 397.6,381.1 394,377.7 L442.7,285.8 C447.8,287.4 453.2,288.4 458.6,288.4 C488,288.4 511.9,264.4 511.9,235.1 C512,205.6 488.1,181.7 458.7,181.7 Z M405.7,241.5 C405.8,242.2 405.9,242.9 406,243.5 C406.3,245 406.5,246.5 407,248 C407.2,248.7 407.4,249.5 407.6,250.2 C408,251.6 408.5,253 409,254.4 C409.3,255 409.5,255.7 409.9,256.3 C410.5,258 411.4,259.5 412.2,261 C412.4,261.4 412.5,261.7 412.7,262.1 C413.8,264 415,265.8 416.3,267.5 C416.6,267.8 416.9,268.1 417.2,268.5 C418.3,269.9 419.4,271.2 420.7,272.4 C421.1,272.8 421.7,273.3 422.1,273.8 C422.7,274.3 423.3,275 423.9,275.5 L375.8,366.4 C375.3,366.1 374.6,366 374,365.8 C373.3,365.6 372.5,365.4 371.8,365.2 C370.3,364.7 368.7,364.3 367.1,364 C366.6,363.9 365.9,363.8 365.3,363.7 C363.2,363.3 360.9,363.1 358.7,363.1 L358.3,363.1 C356.3,363 354.1,363.1 352.1,363.3 L350.2,363.6 C348.6,363.8 347,364 345.5,364.5 C344.8,364.6 344,364.8 343.3,365 C341.8,365.4 340.3,365.9 338.7,366.5 C338.2,366.7 337.5,366.9 336.9,367.1 C334.8,368 332.7,369 330.7,370.1 C328.6,371.4 326.5,372.9 324.5,374.4 C324,374.8 323.3,375.4 322.8,375.9 C321.5,377 320.2,378.1 319.1,379.3 C318.6,379.9 317.9,380.6 317.4,381.2 C316.3,382.4 315.3,383.7 314.3,384.9 C313.9,385.5 313.3,386.2 312.9,386.8 C311.8,388.5 310.9,390.2 309.9,392 C309.7,392.3 309.5,392.6 309.4,393 C308.3,395.1 307.5,397.4 306.7,399.6 C306.5,400.2 306.4,401 306.2,401.6 C305.7,403.2 305.3,404.9 305,406.6 C304.8,407.5 304.7,408.3 304.6,409.2 C304.5,409.9 304.4,410.7 304.3,411.4 L207.9,411.4 C207.8,410.7 207.7,409.9 207.6,409.2 C207.5,408.3 207.4,407.5 207.2,406.6 C206.9,404.9 206.6,403.3 206,401.7 C205.9,401 205.7,400.3 205.5,399.6 C204.8,397.4 203.9,395.2 202.8,393.1 C202.6,392.7 202.4,392.2 202.2,391.8 C201.3,390.1 200.4,388.5 199.3,386.9 C198.9,386.2 198.3,385.5 197.8,384.9 C196.8,383.6 195.9,382.3 194.9,381.2 C194.3,380.6 193.6,379.9 193,379.2 C191.9,378.1 190.7,377 189.5,375.9 C188.9,375.4 188.2,374.8 187.6,374.4 C185.7,372.8 183.7,371.4 181.5,370.1 C179.5,368.9 177.3,368 175.3,367.1 C174.7,366.9 174,366.7 173.5,366.5 C171.9,365.9 170.4,365.3 168.8,364.9 C168.1,364.8 167.4,364.6 166.7,364.4 C165.2,364.1 163.6,363.9 162,363.7 C161.4,363.6 160.7,363.5 160,363.4 C158.2,363.2 156.3,363.2 154.3,363.2 L153.3,363.2 C151.2,363.2 149,363.4 147,363.7 C146,363.9 145.1,364.1 144.1,364.3 C142.9,364.5 141.9,364.7 140.7,365 C139.6,365.3 138.6,365.6 137.5,366.1 C137.1,366.2 136.6,366.3 136.2,366.5 L88,275.6 C88.5,275.1 89.2,274.4 89.7,273.9 C90.2,273.5 90.8,272.9 91.3,272.4 C92.5,271.2 93.5,269.9 94.6,268.7 C94.9,268.4 95.2,268 95.6,267.6 C96.9,265.9 98.2,264.1 99.2,262.2 C99.4,261.9 99.6,261.5 99.8,261 C100.7,259.6 101.4,258 102,256.5 C102.3,255.8 102.5,255.1 102.9,254.5 C103.4,253.1 103.9,251.7 104.3,250.3 C104.5,249.6 104.7,248.8 104.9,248.1 C105.3,246.6 105.5,245.1 105.9,243.7 C106,243 106.1,242.3 106.2,241.6 C106.4,239.5 106.6,237.2 106.6,235.1 C106.6,232.9 106.4,230.6 106.2,228.5 C106.1,227.8 106,227.1 105.9,226.5 C105.6,225 105.4,223.5 104.9,222 C104.7,221.3 104.5,220.5 104.3,219.8 C103.9,218.4 103.4,217.1 102.9,215.7 C102.6,215 102.4,214.3 102,213.7 C101.4,212.1 100.6,210.6 99.8,209.1 C99.6,208.7 99.4,208.2 99.2,207.9 C98.1,206 96.9,204.3 95.6,202.6 C95.3,202.2 95,201.9 94.6,201.4 C93.5,200.1 92.5,198.8 91.2,197.7 C90.8,197.2 90.2,196.7 89.7,196.2 C89.1,195.7 88.5,195 88,194.6 L136.1,103.7 C136.8,103.9 137.7,104.1 138.4,104.4 C139.1,104.6 139.8,104.8 140.5,105 C142.5,105.5 144.6,106.1 146.6,106.4 C146.8,106.4 147,106.4 147.2,106.5 C149.4,106.8 151.7,106.9 154,106.9 C154.2,106.9 154.4,107 154.6,107 C155.1,107 155.7,106.9 156.2,106.9 C157.5,106.8 158.9,106.8 160.3,106.6 C161.2,106.5 161.9,106.4 162.8,106.3 C164.2,106.1 165.5,105.9 166.9,105.6 C167.6,105.4 168.4,105.2 169.2,105 C170.6,104.7 172,104.1 173.4,103.6 C174,103.4 174.7,103.2 175.3,102.9 C177.3,102 179.4,101.1 181.3,100 C183.4,98.7 185.5,97.3 187.5,95.8 C188,95.3 188.7,94.7 189.2,94.3 C190.5,93.1 191.8,92.1 192.9,90.8 C193.4,90.3 194.1,89.6 194.6,89 C195.7,87.7 196.7,86.4 197.7,85.2 C198.1,84.6 198.7,83.9 199.1,83.3 C200.2,81.6 201.1,79.9 202.1,78.2 C202.3,77.8 202.5,77.5 202.6,77.1 C203.7,75 204.5,72.7 205.3,70.5 C205.5,69.9 205.6,69.1 205.8,68.5 C206.3,66.9 206.7,65.2 207,63.6 C207.2,62.7 207.3,61.9 207.4,61 C207.5,60.1 207.6,59.5 207.7,58.7 L304.1,58.7 C304.2,59.6 304.3,60.2 304.4,61 C304.5,61.9 304.6,62.7 304.8,63.6 C305.1,65.2 305.4,66.9 306,68.5 C306.2,69.1 306.3,69.9 306.5,70.5 C307.2,72.7 308.1,75 309.2,77.1 C309.3,77.4 309.6,77.8 309.8,78.2 C310.7,80 311.6,81.6 312.7,83.3 C313.1,83.9 313.7,84.6 314.2,85.2 C315.1,86.5 316.1,87.8 317.2,89 C317.7,89.6 318.4,90.3 318.9,90.9 C320.1,92.1 321.4,93.1 322.6,94.3 C323.2,94.7 323.8,95.3 324.4,95.8 C326.3,97.3 328.3,98.7 330.5,100 C332.4,101.1 334.4,102 336.5,102.9 C337.1,103.2 337.8,103.4 338.4,103.6 C339.8,104.1 341.2,104.7 342.7,105.1 C343.4,105.3 344.2,105.4 344.9,105.6 C346.3,105.9 347.7,106.1 349.1,106.3 C349.8,106.5 350.7,106.6 351.4,106.6 C352.8,106.8 354.1,106.9 355.5,106.9 C356,106.9 356.6,107 357.2,107 C357.4,107 357.6,106.9 357.9,106.9 C359.9,106.9 362,106.8 364,106.5 C364.7,106.4 365.5,106.3 366.2,106.2 C367.8,105.9 369.3,105.6 370.9,105.1 C371.9,104.8 372.9,104.5 373.9,104.1 C374.5,103.9 375.2,103.8 375.7,103.6 L423.8,194.5 C423.3,194.9 422.7,195.6 422.2,196.1 C421.6,196.5 421,197.1 420.5,197.6 C419.4,198.8 418.4,199.9 417.3,201.2 C417,201.6 416.6,202.1 416.2,202.5 C414.9,204.2 413.6,205.9 412.6,207.8 C412.4,208.2 412.2,208.7 412,209.1 C411.1,210.6 410.4,212 409.8,213.6 C409.5,214.2 409.3,215 408.9,215.6 C408.4,217 407.9,218.3 407.5,219.7 C407.3,220.4 407.1,221.2 406.9,222 C406.5,223.4 406.3,224.9 405.9,226.4 C405.8,227 405.7,227.7 405.6,228.4 C405.4,230.5 405.2,232.8 405.2,235 C405.3,237.2 405.5,239.4 405.7,241.5 Z" id="Shape"></path>
                <polygon id="Shape" points="133.4 195.3 143.9 213.9 160 204.8 160 320.4 218.7 320.4 218.7 235 293.3 235 293.3 320.4 352 320.4 352 204.8 368.1 213.9 378.6 195.3 256 126"></polygon>
            </g>
        </g>
    </g>
</svg>