<?xml version="1.0" encoding="iso-8859-1"?>
<!-- Generator: Adobe Illustrator 18.1.1, SVG Export Plug-In . SVG Version: 6.00 Build 0)  -->
<svg version="1.1" id="Capa_1" xmlns="http://www.w3.org/2000/svg" xmlns:xlink="http://www.w3.org/1999/xlink" x="0px" y="0px"
	 viewBox="0 0 20.954 20.954" style="enable-background:new 0 0 20.954 20.954;" xml:space="preserve">
<g>
	<g>
		<g>
			<path style="fill:#030104;" d="M20.851,7.169l-7.705-3.681c-0.09-0.042-0.197-0.004-0.24,0.084l-1.677,3.51h0.913l1.232-2.579
				l6.679,3.191l-2.088,4.372l-1.177-0.561v2.311l0.723,0.346c0.091,0.043,0.197,0.004,0.241-0.084l3.185-6.668
				C20.98,7.32,20.941,7.212,20.851,7.169z"/>
		</g>
		<g>
			<path style="fill:#030104;" d="M0.103,7.126l7.705-3.68c0.09-0.043,0.197-0.005,0.24,0.083l1.678,3.51H8.812L7.58,4.46
				L0.901,7.651l2.089,4.372l1.176-0.561v2.311l-0.723,0.346c-0.09,0.045-0.197,0.004-0.24-0.084L0.018,7.366
				C-0.025,7.277,0.013,7.17,0.103,7.126z"/>
		</g>
		<g>
			<path style="fill:#030104;" d="M16.06,7.684H5.216c-0.126,0-0.229,0.102-0.229,0.228v9.385c0,0.125,0.103,0.229,0.229,0.229
				h10.845c0.127,0,0.229-0.104,0.229-0.229V7.912C16.29,7.786,16.187,7.684,16.06,7.684z M15.434,14.877h-0.688
				c-0.4-1.025-0.893-2.463-1.641-2.271c-0.876,0.223-1.315,2.271-1.315,2.271s-0.446-2.311-1.683-3.549
				c-1.238-1.237-2.437,3.549-2.437,3.549H6.033V8.723h9.401V14.877z"/>
		</g>
		<g>
			<circle style="fill:#030104;" cx="7.55" cy="10.042" r="0.767"/>
		</g>
		<g>
			<path style="fill:#030104;" d="M12.697,10.584c0.172,0,0.332-0.019,0.476-0.048c0.167,0.071,0.372,0.115,0.592,0.115
				c0.564,0,1.023-0.276,1.023-0.616c0-0.341-0.459-0.618-1.023-0.618c-0.212,0-0.409,0.04-0.572,0.106
				c-0.067-0.065-0.157-0.106-0.257-0.106h-0.149c-0.189,0-0.339,0.144-0.361,0.328c-0.458,0.048-0.798,0.213-0.798,0.413
				C11.627,10.393,12.106,10.584,12.697,10.584z"/>
		</g>
	</g>
</g>
<g>
</g>
<g>
</g>
<g>
</g>
<g>
</g>
<g>
</g>
<g>
</g>
<g>
</g>
<g>
</g>
<g>
</g>
<g>
</g>
<g>
</g>
<g>
</g>
<g>
</g>
<g>
</g>
<g>
</g>
</svg>
