<?xml version="1.0" encoding="iso-8859-1"?>
<!-- Generator: Adobe Illustrator 16.0.0, SVG Export Plug-In . SVG Version: 6.00 Build 0)  -->
<!DOCTYPE svg PUBLIC "-//W3C//DTD SVG 1.1//EN" "http://www.w3.org/Graphics/SVG/1.1/DTD/svg11.dtd">
<svg version="1.1" id="Capa_1" xmlns="http://www.w3.org/2000/svg" xmlns:xlink="http://www.w3.org/1999/xlink" x="0px" y="0px"
	 width="557.969px" height="557.968px" viewBox="0 0 557.969 557.968" style="enable-background:new 0 0 557.969 557.968;"
	 xml:space="preserve">
<g>
	<g>
		<g>
			<path d="M67.34,153.922h423.288c37.185,0,67.341-30.147,67.341-67.34c0-37.195-30.156-67.34-67.341-67.34H67.34
				C30.157,19.241,0,49.386,0,86.581C0,123.774,30.157,153.922,67.34,153.922z M67.34,52.103c19.054,0,34.478,15.435,34.478,34.478
				s-15.426,34.478-34.478,34.478c-19.051,0-34.478-15.435-34.478-34.478C32.86,67.536,48.289,52.103,67.34,52.103z"/>
			<path d="M490.628,211.643H67.34c-37.183,0-67.34,30.145-67.34,67.34c0,37.192,30.157,67.34,67.34,67.34h423.288
				c37.185,0,67.341-30.147,67.341-67.34C557.967,241.788,527.81,211.643,490.628,211.643z M67.34,313.459
				c-19.051,0-34.478-15.435-34.478-34.476c0-19.043,15.427-34.478,34.478-34.478c19.054,0,34.478,15.435,34.478,34.478
				C101.818,298.025,86.392,313.459,67.34,313.459z"/>
			<path d="M490.628,404.045H67.34C30.157,404.045,0,434.192,0,471.387c0,37.192,30.157,67.34,67.34,67.34h423.288
				c37.185,0,67.341-30.146,67.341-67.34C557.967,434.191,527.81,404.045,490.628,404.045z M67.34,505.862
				c-19.051,0-34.478-15.436-34.478-34.477c0-19.044,15.427-34.479,34.478-34.479c19.054,0,34.478,15.435,34.478,34.479
				C101.818,490.428,86.392,505.862,67.34,505.862z"/>
		</g>
	</g>
</g>
<g>
</g>
<g>
</g>
<g>
</g>
<g>
</g>
<g>
</g>
<g>
</g>
<g>
</g>
<g>
</g>
<g>
</g>
<g>
</g>
<g>
</g>
<g>
</g>
<g>
</g>
<g>
</g>
<g>
</g>
</svg>
