<svg xmlns="http://www.w3.org/2000/svg" width="415.74667" height="453.54666" viewBox="0 0 415.7466735839844 453.5466613769531">
  <path fill="rgba(29, 29, 27, 0)" d="M0 453.54666h415.7453V.00002H0z"/>
  <path fill="#DADADA" d="M42.46613 426.92426v-15.544H24.5448v15.544h-5.64667v-35.46133h5.64667v14.96133h17.92133v-14.96133h5.65733v35.46133zm18.89453 0v-35.46133h18.93867l-1.72267 4.84667h-11.56v10.06266h11.51067v4.84934H67.01666v10.856h13.344v4.84666zm30.78654 0v-35.46133h5.596v30.61467h12.97866v4.84666z"/>
  <g clip-path="url(#clipPath32)" transform="matrix(1.33333 0 0 -1.33333 0 453.547)">
    <path fill="#DADADA" d="M96.8857 19.5605c-3.667 0-6.183 1.215-7.87 2.295l1.778 3.193c1.329-.927 3.426-1.984 5.929-1.984 2.176 0 4.723.98 4.723 3.4 0 4.08-6.418 4.879-9.649 8.477-1.094 1.209-1.808 2.707-1.808 4.752 0 3.885 2.982 7.119 8.351 7.119 2.826 0 4.924-.734 6.294-1.461l-.041-3.949c-1.817 1.08-3.868 1.849-6.052 1.849-2.301 0-4.202-.964-4.202-3.058 0-5.252 11.624-5.102 11.624-13.244 0-4.483-3.95-7.389-9.077-7.389"/>
  </g>
  <path fill="#DADADA" d="M158.18894 426.9244h-5.64665v-35.46124h5.64662z"/>
  <g fill="#DADADA" clip-path="url(#clipPath46)" transform="matrix(1.33333 0 0 -1.33333 0 453.547)">
    <path d="M147.9521 19.9668l-12.522 16.342c-1.288 1.691-2.006 2.75-2.658 3.84h-.079c.079-.895.079-2.188.079-3.477v-16.705h-4.194v26.596h4.278l12.023-15.741c1.459-1.904 2.181-2.908 2.788-4.003h.079c-.041 1.095-.079 2.425-.079 3.728v16.016h4.24v-26.596zm25.0274-.4063c-8.11 0-13.309 5.695-13.309 13.355 0 8.041 5.756 13.897 14.438 13.897 3.39 0 5.974-.772 7.715-1.504l-.043-4.074c-1.944 1.004-4.483 1.978-7.386 1.978-6.905 0-10.166-4.367-10.166-9.888 0-5.969 3.742-10.166 9.837-10.166 1.984 0 3.515.349 4.485.886v9.161h4.234v-11.297c-2.138-1.133-5.645-2.348-9.805-2.348m27.1709 12.1465h-3.593v-8.105h3.392c3.438 0 5.171 1.693 5.171 4.238 0 2.25-1.863 3.867-4.97 3.867m-3.593 11.182v-7.547h3.024c1.985 0 3.917 1.449 3.917 3.869 0 2.228-1.33 3.678-4.244 3.678zm3.593-22.922h-7.834v26.594h8.071c5.089 0 7.429-3.383 7.429-6.541 0-2.463-1.173-4.639-3.387-5.655v-.025c2.784-.613 5.078-3.154 5.078-6.463 0-3.717-2.539-7.91-9.357-7.91m29.0635 23.1658c-5.365 0-8.957-3.793-8.957-10.02 0-6.164 3.592-9.957 8.957-9.957 5.327 0 8.925 3.793 8.925 9.957 0 5.985-3.36 10.02-8.925 10.02m-9.642-.205c2.376 2.424 5.725 3.885 9.642 3.885 4.193 0 7.715-1.541 10.092-4.162 2.184-2.42 3.342-5.692 3.342-9.448 0-3.998-1.369-7.502-3.827-9.927-2.429-2.387-5.69-3.715-9.607-3.715-3.755 0-6.901 1.176-9.245 3.269-2.664 2.463-4.19 6.049-4.19 10.217 0 3.949 1.369 7.416 3.793 9.881m37.4965-.0391h-2.421v-8.838h2.507c2.739 0 4.758 2.1 4.758 4.639 0 2.295-1.41 4.199-4.844 4.199m7.302-22.924c-4.156 6.854-6.212 10.488-7.259 10.776h-2.464v-10.776h-4.236v26.598h6.618c6.656 0 9.207-3.35 9.207-7.43 0-3.635-2.388-5.967-5.008-7.023v-.039c1.085-.559 3.911-5.289 8.072-12.106zm23.4646-.4042c-8.122 0-13.324 5.695-13.324 13.355 0 8.041 5.771 13.897 14.446 13.897 3.392 0 5.98-.772 7.711-1.504l-.033-4.074c-1.944 1.004-4.483 1.978-7.391 1.978-6.905 0-10.178-4.367-10.178-9.888 0-5.969 3.755-10.166 9.854-10.166 1.975 0 3.516.349 4.475.886v9.161h4.244v-11.297c-2.138-1.133-5.655-2.348-9.804-2.348M155.9062 238.7466c.858 0 1.562-.703 1.562-1.562 0-.86-.704-1.563-1.562-1.563-.859 0-1.562.703-1.562 1.563 0 .859.703 1.562 1.562 1.562"/>
    <path d="M159.0342 240.7969s.125.763.125 1.788-.125 1.787-.125 1.787-.95-.554-1.937-.495c-.119 1.444.869 2.985.869 2.985s-1.321-.416-2.061-.416c-.739 0-2.058.416-2.058.416s.987-1.541.868-2.985c-.988-.059-1.938.495-1.938.495s-.125-.762-.125-1.787.125-1.788.125-1.788.95.554 1.938.496c.087-1.058-.473-2.111-.78-2.6l.169-.127c.417.542 1.071.893 1.801.893.733 0 1.385-.351 1.802-.893l.17.127c-.308.489-.866 1.542-.78 2.6.987.058 1.937-.496 1.937-.496"/>
  </g>
  <path fill="#DADADA" d="M207.87492 140.16775l-20.41733 15.88933v6.56533h5.748v-6.5653h11.796v6.56533h5.7453v-6.56532h11.79733v6.56534h5.748v-6.56532z"/>
  <path fill="#DADADA" d="M231.31505 159.07988v6.56667h-11.796v-6.56667h-5.74533v6.56667H201.9764v-6.56667h-5.74668v6.56667h-11.79466v-6.56667h-5.748v12.20932h58.37733v-12.2093z"/>
  <g clip-path="url(#clipPath94)" transform="matrix(1.33333 0 0 -1.33333 0 453.547)">
    <path fill="#fff" d="M106.3125 214.4712c0 1.01.818 1.829 1.828 1.829 1.01 0 1.828-.819 1.828-1.829s-.818-1.828-1.828-1.828c-1.01 0-1.828.818-1.828 1.828"/>
  </g>
  <path fill="#DADADA" d="M145.40626 180.216v-8.72132h-2.43734v8.72133l-16.07466 20.5467h53.76133V180.216z"/>
  <g clip-path="url(#clipPath110)" transform="matrix(1.33333 0 0 -1.33333 0 453.547)">
    <path fill="#DADADA" d="M102.463 174.244h33.027v13.076h-33.027zm10.428 3.747h-4.573v5.021c0 1.006 1.024 1.821 2.286 1.821 1.263 0 2.287-.815 2.287-1.821zm8.373 0h-4.573v5.021c0 1.006 1.024 1.821 2.287 1.821 1.262 0 2.286-.815 2.286-1.821zm8.373 0h-4.574v5.021c0 1.006 1.025 1.821 2.288 1.821 1.261 0 2.286-.815 2.286-1.821z"/>
    <path fill="#fff" d="M205.5 214.4712c0 1.01-.818 1.829-1.828 1.829-1.011 0-1.828-.819-1.828-1.829s.817-1.828 1.828-1.828c1.01 0 1.828.818 1.828 1.828"/>
  </g>
  <path fill="#DADADA" d="M270.34372 180.216v-8.72132h2.436v8.72133l16.076 20.5467H235.0944V180.216z"/>
  <g fill="#DADADA" clip-path="url(#clipPath128)" transform="matrix(1.33333 0 0 -1.33333 0 453.547)">
    <path d="M176.32 174.244h33.027v13.076H176.32zm22.602 8.768c0 1.006 1.022 1.821 2.286 1.821 1.263 0 2.285-.815 2.285-1.821v-5.021h-4.571zm-8.373 0c0 1.006 1.022 1.821 2.286 1.821 1.263 0 2.285-.815 2.285-1.821v-5.021h-4.571zm-8.373 0c0 1.006 1.022 1.821 2.286 1.821 1.263 0 2.286-.815 2.286-1.821v-5.021h-4.572zm-66.1965-29.1116l18.741 18.076h-33.915s-11.454-3.955-11.454-12.681c0-2.45 1.231-4.379 2.051-5.395zm79.8535 0l-18.741 18.076h33.915s11.454-3.955 11.454-12.681c0-2.45-1.231-4.379-2.052-5.395zm-77.1523-.5117l30.19 29.939-22.313-29.447c-.487-.32-1.95-1.115-4.456-1.115-1.544 0-2.724.348-3.421.623m10.419.137l22.799 31.099-14.475-30.728c-.683-.367-2.37-1.131-4.562-1.131-1.687 0-2.967.406-3.762.76m10.658.07l14.379 31.997-5.502-31.626c-.98-.392-3.221-1.201-5.039-1.201-1.894 0-3.154.473-3.838.83m16.148-.83c-2.81.004-4.339.545-5.038.898l5.039 32.748 5.038-32.75c-.699-.351-2.229-.892-5.039-.896m7.272 1.201l-5.502 31.626 14.378-31.995c-.685-.361-1.946-.832-3.837-.832-1.819 0-4.058.809-5.039 1.201m11.208-.068l-14.473 30.726 22.799-31.099c-.796-.356-2.076-.76-3.76-.76-2.173 0-3.877.769-4.566 1.133m10.87-.018l-22.315 29.447 30.191-29.939c-.7-.275-1.879-.623-3.422-.623-2.513 0-3.975.801-4.454 1.115m-68.1883-2.2479h-24.125v-22.549h3.118v-8.877h14.426v8.877h10.42v21.475c-1.915.183-3.261.773-3.839 1.074m-12.429-7.189c0 1.003 1.023 1.818 2.285 1.818 1.264 0 2.288-.815 2.288-1.818v-5.022h-4.573zm-8.373 0c0 1.003 1.024 1.818 2.285 1.818 1.264 0 2.288-.815 2.288-1.818v-5.022h-4.573zm21.319-5.022h-4.573v5.022c0 1.003 1.023 1.818 2.285 1.818 1.263 0 2.288-.815 2.288-1.818zm73.3218 11.1368v-21.475h10.42v-8.877h14.426v8.877h3.118v22.547h-24.125c-.578-.299-1.925-.888-3.839-1.072m16.268-11.139h-4.574v5.024c0 1.004 1.025 1.818 2.286 1.818 1.263 0 2.288-.814 2.288-1.818zm8.373 0h-4.574v5.024c0 1.004 1.025 1.818 2.287 1.818s2.287-.814 2.287-1.818zm-21.319 5.024c0 1.004 1.025 1.818 2.286 1.818 1.263 0 2.287-.814 2.287-1.818v-5.024h-4.573zm-9.9001 7.3533c-.942-.52-2.789-1.299-5.377-1.299-2.496 0-4.474.809-5.463 1.311-.892-.533-2.643-1.311-5.271-1.311-2.2 0-4.724.899-5.865 1.356-.917-.551-2.86-1.35-6.424-1.356h-.043c-3.565.006-5.51.805-6.426 1.356-1.141-.457-3.666-1.356-5.863-1.356-2.628 0-4.379.778-5.274 1.311-.988-.502-2.965-1.311-5.461-1.311-2.588 0-4.434.779-5.377 1.299-.791-.453-2.232-1.084-4.309-1.254v-21.459h7.973v-8.875h14.426v8.875h20.662v-8.875h14.428v8.875h7.974v21.459c-2.078.17-3.52.801-4.31 1.254m-49.011-17.383h-6.059v8.633c0 1.332 1.357 2.412 3.029 2.412 1.674 0 3.03-1.08 3.03-2.412zm12.037 0h-7.518v9.238c0 1.653 1.683 2.993 3.76 2.993 2.076 0 3.758-1.34 3.758-2.993zm12.311 0h-7.519v9.238c0 1.653 1.684 2.993 3.759 2.993 2.076 0 3.76-1.34 3.76-2.993zm12.309 0h-7.516v9.238c0 1.653 1.682 2.993 3.759 2.993 2.076 0 3.757-1.34 3.757-2.993zm10.581 0h-6.061v8.633c0 1.332 1.356 2.412 3.029 2.412 1.674 0 3.032-1.08 3.032-2.412z"/>
    <path d="M152.1562 194.2412l3.75 3.749 3.75-3.749-2.772-2.772 17.168-16.562v34.519h-36.293v-34.519l17.169 16.562zm9.837 11.158c0 1.005 1.022 1.82 2.286 1.82 1.263 0 2.285-.815 2.285-1.82v-5.02h-4.571zm-8.374 0c0 1.005 1.025 1.82 2.287 1.82 1.263 0 2.285-.815 2.285-1.82v-5.02h-4.572zm-3.801-5.02h-4.571v5.02c0 1.005 1.024 1.82 2.286 1.82 1.263 0 2.285-.815 2.285-1.82z"/>
    <path d="M233.5332 320.1108v-2.444h-3.776v2.444h-5.59v-2.444h-3.778v2.444h-5.588v-6.57h2.517v-10.019h-4.143v-6.737h-7.348v6.737h-4.147v10.019h2.52v6.57h-5.59v-2.444h-3.775v2.444h-5.59v-2.444h-3.776v2.444h-5.59v-6.57h2.518v-10.019h-4.144v-6.737h-8.561v6.737h-4.143v10.019h2.517v6.57h-5.59v-2.444h-3.775v2.444h-5.59v-2.444h-3.776v2.444h-5.589v-6.57h2.518v-10.019h-4.145v-6.737h-7.953v6.737h-4.146v10.019h2.519v6.57h-5.59v-2.444h-3.775v2.444h-5.59v-2.444h-3.778v2.444h-5.588v-6.57h2.518v-10.019h-4.144v-6.737h-7.955v6.737h-4.145v10.019h2.52v6.57h-5.59v-2.444h-3.777v2.444h-5.59v-2.444h-3.776v2.444h-5.59v-6.57h2.52v-16.756l9.721-10.333v-16.191h-4.832v-15.634h-3.999v-150.58c0-9.451 4.742-14.988 14.92-17.426 15.715-3.761 37.745-9.039 53.461-12.824 5.49-1.322 8.899-4.346 10.732-9.516l.693-1.961.695 1.961c1.832 5.17 5.243 8.194 10.732 9.516 15.702 3.781 37.737 9.061 53.46 12.824 10.178 2.438 14.921 7.975 14.921 17.426v150.58h-4v15.634h-4.832v16.191l9.721 10.333v16.756h2.52v6.57zm.705-194.144h-15.368v-8.877h-20.662v8.877h-14.428v-8.877h-20.661v8.877h-14.426v-8.877h-20.662v8.877h-14.427v-8.877h-20.661v8.877h-15.369v127.186h156.664z"/>
  </g>
</svg>
