<svg id="Layer_1" xmlns="http://www.w3.org/2000/svg" viewBox="0 0 150.1 157.4"><style>.st0{stroke:#FFF;stroke-width:5.75600e-2}.st0,.st1{fill:#FFF}.st2{fill:none;stroke:#FFF;stroke-width:.5}</style><path class="st0" d="M64.3 77.5H46.9c-1.8.7-5.9 2.7-5.9 6.5 0 1.3.6 2.2 1.1 2.8h12.7l9.5-9.3zM103.2 77.5H85.8l9.6 9.4h12.7c.5-.6 1.1-1.5 1.1-2.8 0-3.9-4.2-5.9-6-6.6zM107.1 101v4.6h-10v-4.8h-7.9v4.6H79.1V101H71v4.4H60.9v-4.6H53v4.8H43V101h-8.2v11.4c0 3.3 1.4 6.7 6.6 8.1 5.2 1.3 24.6 5.9 28.1 6.7 4.7 1.1 5.6 4.8 5.6 4.8s.9-3.7 5.6-4.8c3.5-.8 22.9-5.4 28.1-6.7 5.2-1.3 6.6-4.8 6.6-8.1V101h-8.3zM67.6 51.7v2.6h1.8v-2.8h4.5v2.8h2.3v-2.8h4.6v2.8h1.7v-2.6h.9l-8.3-6.5-8.4 6.5z"/><path class="st1" d="M75.1 44.9c.4 0 .7-.3.7-.7 0-.4-.3-.7-.7-.7-.4 0-.7.3-.7.7-.1.3.3.7.7.7"/><path class="st1" d="M76.4 40.7s-.3.1-.5.1h-.2-.1v-.5c0-.2.2-.7.2-.7l.2-.4-.4.1s-.5.1-.6.1c-.2 0-.6-.1-.6-.1H74l.2.4s.2.5.2.7v.5H74.1c-.2 0-.5-.1-.5-.1l-.2-.1V42.6l.2-.1s.3-.1.4-.2c.1 0 .2 0 .3-.1V42.5c0 .2-.2.8-.2.8l-.1.3h.1c.2-.3.5-.5.9-.5s.7.2.9.5h.1l-.1-.3s-.2-.6-.2-.8v-.2-.1c.1 0 .2 0 .3.1.1 0 .4.2.4.2l.2.1v-.3-1.6h-.2zM50.6 54.5c.5 0 .9.4.9.9s-.4.9-.9.9-.9-.4-.9-.9.4-.9.9-.9M51.1 56.9h-.9v3.2h.9v-3.2zM99.5 54.5c.5 0 .9.4.9.9s-.4.9-.9.9-.9-.4-.9-.9.4-.9.9-.9M100 56.9h-1v3.2h1v-3.2zM114.8 1.8v1.3h-2V1.8H110v1.3h-2V1.8h-2.8v3.4h1.3v5.1h-2.1v3.3h-4.1v-3.3h-2.1V5.2h1.2V1.8h-2.8v1.3h-1.9V1.8h-2.9v1.3h-1.9V1.8H87v3.4h1.3v5.1h-2.1v3.3h-4.1v-3.3H80V5.2h1.3V1.8h-2.9v1.3h-1.9V1.8h-2.9v1.3h-1.9V1.8h-2.9v3.4h1.3v5.1H68v3.3h-4.1v-3.3h-2.1V5.2h1.3V1.8h-2.8v1.3h-2V1.8h-2.8v1.3h-2V1.8h-2.8v3.4H52v5.1h-2.1v3.3h-4.1v-3.3h-2.1V5.2H45V1.8h-2.9v1.3h-1.9V1.8h-2.9v1.3h-1.9V1.8h-2.9v3.4h1.3v8.6l5 5.3v8.2h-2.5v8.6h77.5v-8.6h-2.4v-8.2l4.9-5.3V5.2h1.3V1.8h-2.8z"/><path class="st0" d="M85.4 60.7v8h20.8l-6-8zM64.7 60.7H49.9l-6 8h20.8zM89.5 87.8c-.4.3-1.4.8-2.8.8s-2.2-.4-2.7-.6c-.4.2-1.4.5-2.8.5-1.3 0-2.3-.4-2.8-.7-.5.3-1.5.7-3.4.7s-2.9-.4-3.4-.7c-.5.3-1.5.7-2.8.7-1.4 0-2.3-.3-2.8-.5-.4.2-1.3.6-2.7.6-1.4 0-2.3-.5-2.8-.8-.4.2-1.4.5-2.3.6v11.1h4v4.6h7.3v-4.4h10.9v4.4h7.3v-4.6h4.1V88.4c-.9-.2-1.8-.5-2.3-.6zm-25 9h-3.1v-4.4c.5-1.5 2.6-1.5 3.1 0v4.4zm6.2 0h-3.8v-4.9c.6-1.9 3.2-1.9 3.8 0v4.9zm6.3 0h-3.8v-4.9c.6-1.9 3.2-1.9 3.8 0v4.9zm6.3 0h-3.8v-4.9c.6-1.9 3.2-1.9 3.8 0v4.9zm5.4 0h-3.1v-4.4c.5-1.5 2.6-1.5 3.1 0v4.4zM55.6 87.9H42.7v11.7h1.6v4.6h7.2v-4.8h5.7v-11c-.7-.1-1.2-.3-1.6-.5zm-8.7 6.2h-2.2v-2.5c.3-1 1.8-1 2.2 0v2.5zm4.3 0H49v-2.5c.3-1 1.8-1 2.2 0v2.5zm4.2 0h-2.2v-2.5c.3-1 1.8-1 2.2 0v2.5zM94.5 87.9c-.4.2-.9.4-1.6.5v11.1h5.6v4.8h7.2v-4.7h1.7V87.9H94.5zm2.3 6.2h-2.2v-2.5c.3-1 1.8-1 2.2 0v2.5zm4.3 0H99v-2.5c.3-1 1.8-1 2.2 0v2.5zm4.3 0h-2.2v-2.5c.3-1 1.8-1 2.2 0v2.5zM47.7 69.7v6.8h17v-6.8h-17zm5.3 4.7h-2.2v-2.5c.3-1 1.8-1 2.2 0v2.5zm4.3 0h-2.2v-2.5c.3-1 1.8-1 2.2 0v2.5zm4.3 0h-2.2v-2.5c.3-1 1.8-1 2.2 0v2.5zM85.4 69.7v6.8h17v-6.8h-17zm5.3 4.7h-2.2v-2.5c.3-1 1.8-1 2.2 0v2.5zm4.3 0h-2.2v-2.5c.3-1 1.8-1 2.2 0v2.5zm4.2 0H97v-2.5c.3-1 1.8-1 2.2 0v2.5zM61.6 87.2c.4.2 1 .4 1.8.4 1.6 0 2.3-.5 2.3-.6l.1-.1 7.6-16.4-11.8 16.7zM66.9 87.2c.4.1 1.1.3 1.9.3 1.3 0 2.4-.6 2.6-.7l2.9-16.7-7.4 17.1c-.1 0 0 0 0 0zM72.5 87.1c.4.2 1.2.4 2.5.4 1.5 0 2.3-.2 2.7-.4L75 69.7l-2.7 17.4h.2zM56.1 87c.3.2.8.3 1.4.3 1 0 2.2-.4 2.7-.5.2-.1.3-.1.3-.1h.1l11.6-15.6L56.1 87zM88.5 87.2s.1 0 0 0L76.7 70.5l7.6 16.4.1.1s.8.6 2.3.6c.8 0 1.4-.2 1.8-.4zM83.2 87.2c.1 0 .1 0 0 0L75.7 70l3 16.7c.2.1 1.2.7 2.6.7.9.1 1.5 0 1.9-.2zM94 87L78 71.1l11.6 15.6h.1s.1 0 .3.1c.5.2 1.7.5 2.7.5.5.1 1-.1 1.3-.3z"/><path class="st0" d="M65.7 58.3v17.8l8.9-8.7-1.4-1.4 1.9-1.9L77 66l-1.4 1.4 8.9 8.7V58.3H65.7zm6.2 4.6h-2.2v-2.5c.3-1 1.8-1 2.2 0v2.5zm4.2 0H74v-2.5c.3-1 1.8-1 2.2 0v2.5zm4.3 0h-2.2v-2.5c.3-1 1.8-1 2.2 0v2.5z"/><path class="st1" d="M63.9 57.3h22.4v-4.5h-2.7v2.5h-3.9v-2.7h-2.5v2.7h-4.3v-2.7h-2.5v2.7h-3.9v-2.5h-2.6v4.5zM11.6 155.3v-5.9H4.7v5.9H2.6v-13.6h2.1v5.8h6.9v-5.8h2.2v13.6h-2.2zM18.9 155.3v-13.6h7.2l-.6 1.9H21v3.8h4.5v1.9H21v4.2h5.2v1.8h-7.3zM30.7 155.3v-13.6h2.1v11.8h5v1.8h-7.1zM44.9 155.5c-1.9 0-3.2-.6-4-1.2l.9-1.6c.7.5 1.8 1 3 1 1.1 0 2.4-.5 2.4-1.7 0-2.1-3.3-2.5-4.9-4.3-.6-.6-.9-1.4-.9-2.4 0-2 1.5-3.6 4.3-3.6 1.4 0 2.5.4 3.2.7v2c-.9-.6-2-.9-3.1-.9-1.2 0-2.1.5-2.1 1.6 0 2.7 5.9 2.6 5.9 6.8-.1 2.1-2.1 3.6-4.7 3.6zM53.8 155.3v-13.6H56v13.6h-2.2zM71 155.3l-6.4-8.4c-.7-.9-1-1.4-1.4-2v10.3h-2.1v-13.6h2.2l6.1 8c.7 1 1.1 1.5 1.4 2v-10.1H73v13.6h-2v.2zM83.8 155.5c-4.1 0-6.8-2.9-6.8-6.8 0-4.1 2.9-7.1 7.4-7.1 1.7 0 3.1.4 3.9.8v2.1c-1-.5-2.3-1-3.8-1-3.5 0-5.2 2.2-5.2 5.1 0 3.1 1.9 5.2 5 5.2 1 0 1.8-.2 2.3-.5v-4.7h2.2v5.8c-1.1.5-2.9 1.1-5 1.1zM97.7 149.3h-1.8v4.1h1.7c1.8 0 2.6-.9 2.6-2.2 0-1.1-.9-1.9-2.5-1.9zm-1.8-5.7v3.9h1.5c1 0 2-.7 2-2 0-1.1-.7-1.9-2.2-1.9h-1.3zm1.8 11.7h-4v-13.6h4.1c2.6 0 3.8 1.7 3.8 3.3 0 1.3-.6 2.4-1.7 2.9 1.4.3 2.6 1.6 2.6 3.3 0 2-1.3 4.1-4.8 4.1zM112.5 143.5c-2.7 0-4.6 1.9-4.6 5.1 0 3.2 1.8 5.1 4.6 5.1 2.7 0 4.6-1.9 4.6-5.1 0-3.1-1.7-5.1-4.6-5.1zm-4.9.1c1.2-1.2 2.9-2 4.9-2 2.1 0 3.9.8 5.2 2.1 1.1 1.2 1.7 2.9 1.7 4.8 0 2-.7 3.8-2 5.1-1.2 1.2-2.9 1.9-4.9 1.9-1.9 0-3.5-.6-4.7-1.7-1.4-1.3-2.1-3.1-2.1-5.2 0-2 .7-3.8 1.9-5zM126.8 143.6h-1.2v4.5h1.3c1.4 0 2.4-1.1 2.4-2.4 0-1.1-.8-2.1-2.5-2.1zm3.7 11.7c-2.1-3.5-3.2-5.4-3.7-5.5h-1.3v5.5h-2.2v-13.6h3.4c3.4 0 4.7 1.7 4.7 3.8 0 1.9-1.2 3.1-2.6 3.6.6.3 2 2.7 4.1 6.2h-2.4zM142.5 155.5c-4.2 0-6.8-2.9-6.8-6.8 0-4.1 3-7.1 7.4-7.1 1.7 0 3.1.4 3.9.8v2.1c-1-.5-2.3-1-3.8-1-3.5 0-5.2 2.2-5.2 5.1 0 3.1 1.9 5.2 5 5.2 1 0 1.8-.2 2.3-.5v-4.7h2.2v5.8c-1.1.5-2.9 1.1-5 1.1z"/><path class="st2" d="M115.3 35.9H34.8v76.6c0 3.3 1.3 6.7 6.5 8.1 5.2 1.3 24.6 5.9 28.1 6.7 4.6 1.1 5.6 4.8 5.6 4.8s1-3.7 5.6-4.8c3.5-.8 22.9-5.4 28.1-6.7 5.2-1.3 6.6-4.8 6.6-8.1V35.9z"/></svg>