<svg xmlns="http://www.w3.org/2000/svg" viewBox="0 0 239.4 66.9"><g fill="#1D1D1B"><path d="M74.5 41.6v-7.2h-8.3v7.2h-2.6V25.1h2.6v7h8.3v-7h2.7v16.5h-2.7zM83.3 41.6V25.1h8.8l-.8 2.3h-5.4v4.7h5.4v2.2h-5.4v5.1h6.3v2.2h-8.9zM97.6 41.6V25.1h2.6v14.3h6.1v2.2h-8.7zM114.9 41.9c-2.3 0-3.8-.8-4.9-1.4l1.1-2c.8.6 2.1 1.2 3.7 1.2 1.3 0 2.9-.6 2.9-2.1 0-2.5-4-3-6-5.3-.7-.8-1.1-1.7-1.1-2.9 0-2.4 1.9-4.4 5.2-4.4 1.8 0 3.1.5 3.9.9v2.5c-1.1-.7-2.4-1.1-3.8-1.1s-2.6.6-2.6 1.9c0 3.3 7.2 3.2 7.2 8.2 0 2.7-2.5 4.5-5.6 4.5zM125.7 41.6V25.1h2.7v16.5h-2.7zM146.5 41.6l-7.8-10.1c-.8-1-1.2-1.7-1.6-2.4V41.7h-2.6V25.1h2.7l7.5 9.8c.9 1.2 1.4 1.8 1.7 2.5V25.2h2.6v16.5h-2.5v-.1zM162.1 41.9c-5 0-8.3-3.5-8.3-8.3 0-5 3.6-8.6 9-8.6 2.1 0 3.7.5 4.8.9v2.5c-1.2-.6-2.8-1.2-4.6-1.2-4.3 0-6.3 2.7-6.3 6.1 0 3.7 2.3 6.3 6.1 6.3 1.2 0 2.2-.2 2.8-.6v-5.7h2.6v7c-1.4.8-3.6 1.6-6.1 1.6zM178.9 34.4h-2.2v5h2.1c2.1 0 3.2-1 3.2-2.6 0-1.4-1.2-2.4-3.1-2.4zm-2.2-7v4.7h1.9c1.2 0 2.4-.9 2.4-2.4 0-1.4-.8-2.3-2.6-2.3h-1.7zm2.2 14.2H174V25.1h5c3.2 0 4.6 2.1 4.6 4.1 0 1.5-.7 2.9-2.1 3.5 1.7.4 3.2 2 3.2 4 0 2.3-1.5 4.9-5.8 4.9zM196.9 27.3c-3.3 0-5.6 2.4-5.6 6.2 0 3.8 2.2 6.2 5.6 6.2 3.3 0 5.5-2.4 5.5-6.2.1-3.7-2-6.2-5.5-6.2zm-5.9.1c1.5-1.5 3.6-2.4 6-2.4 2.6 0 4.8 1 6.3 2.6 1.4 1.5 2.1 3.5 2.1 5.9 0 2.5-.8 4.7-2.4 6.2-1.5 1.5-3.5 2.3-6 2.3-2.3 0-4.3-.7-5.7-2-1.7-1.5-2.6-3.8-2.6-6.3-.1-2.6.8-4.8 2.3-6.3zM214.2 27.4h-1.5v5.5h1.6c1.7 0 3-1.3 3-2.9-.1-1.4-.9-2.6-3.1-2.6zm4.6 14.2c-2.6-4.3-3.9-6.5-4.5-6.7h-1.5v6.7h-2.6V25.1h4.1c4.1 0 5.7 2.1 5.7 4.6 0 2.3-1.5 3.7-3.1 4.4.7.3 2.4 3.3 5 7.5h-3.1zM233.3 41.9c-5 0-8.3-3.5-8.3-8.3 0-5 3.6-8.6 9-8.6 2.1 0 3.7.5 4.8.9v2.5c-1.2-.6-2.8-1.2-4.6-1.2-4.3 0-6.3 2.7-6.3 6.1 0 3.7 2.3 6.3 6.1 6.3 1.2 0 2.2-.2 2.8-.6v-5.7h2.6v7c-1.3.8-3.5 1.6-6.1 1.6z"/></g><path fill="#FFF" d="M42.5 17.5H1.2v39.3c0 1.7.7 3.5 3.4 4.2 2.7.7 12.6 3 14.4 3.5 2.4.6 2.8 2.3 2.9 2.5 0-.1.5-1.9 2.9-2.5 1.8-.4 11.8-2.8 14.4-3.5 2.7-.7 3.4-2.5 3.4-4.2-.1-1.8-.1-1.8-.1-39.3z"/><path fill="#E20613" stroke="#FFF" stroke-width=".058" d="M16.3 38.9h-9c-.9.3-3 1.4-3 3.4 0 .7.3 1.2.6 1.5h6.5l4.9-4.9zM21.7 33.7l.1.1h.1l.1-.1 4.7 4.5V29H17v9.2zM11.9 44.2H5.3v6h.8v2.4h3.7v-2.5h2.9v-5.7c-.4 0-.6-.1-.8-.2zM29.3 44.1c-.2.1-.7.4-1.4.4s-1.1-.2-1.4-.3c-.2.1-.7.3-1.4.3s-1.2-.2-1.5-.4c-.2.2-.8.4-1.8.4s-1.5-.2-1.8-.4c-.3.1-.8.4-1.5.4s-1.2-.2-1.4-.3c-.2.1-.7.3-1.4.3s-1.2-.3-1.4-.4c-.2.1-.7.2-1.2.3v5.7h2.1v2.4H19v-2.3h5.6v2.3h3.7v-2.4h2.1v-5.7c-.4 0-.9-.2-1.1-.3zM36.3 38.9h-9l4.9 4.8h6.5c.3-.3.6-.8.6-1.5.1-2-2.1-3-3-3.3zM31 44.4v5.7h2.9v2.5h3.7v-2.4h.9v-6h-6.6c-.3.1-.5.2-.9.2z"/><path fill="#E20613" stroke="#FFF" stroke-width=".058" d="M38.3 50.9v2.4h-5.1v-2.5h-4.1v2.4h-5.2V51h-4.2v2.3h-5.2v-2.4h-4.1v2.5h-5V51H1.2v5.9c0 1.7.7 3.5 3.4 4.2 2.7.7 12.6 3 14.4 3.5 2.4.6 2.9 2.5 2.9 2.5s.5-1.9 2.9-2.5c1.8-.4 11.8-2.8 14.4-3.5 2.7-.7 3.4-2.5 3.4-4.2V51h-4.3zM18 25.6v1.3h.9v-1.4h2.4v1.4h1.1v-1.4h2.4v1.4h.9v-1.3h.4l-4.2-3.3-4.3 3.3z"/><path fill="#E20613" d="M21.9 22.1c.2 0 .4-.2.4-.4s-.2-.4-.4-.4-.4.2-.4.4.1.4.4.4M22.6 19.9s-.2.1-.3.1h-.1v-.2c0-.1.1-.3.1-.3l.1-.2-.2.1s-.2.1-.3.1c-.1 0-.3-.1-.3-.1l-.2-.1.1.2s.1.2.1.3v.2h-.1c-.1 0-.3-.1-.3-.1h-.1v1l.1-.1s.1-.1.2-.1h.1v.1c0 .1-.1.4-.1.4v.1c.1-.1.3-.2.5-.2s.4.1.5.2v-.1s-.1-.3-.1-.4v-.1h.1c.1 0 .2.1.2.1l.1.1v-.1-.9h-.1zM9.3 27c.3 0 .5.2.5.5s-.2.5-.5.5-.5-.2-.5-.5.2-.5.5-.5M9.6 28.3h-.5v1.6h.5v-1.6zM34.4 27c.3 0 .5.2.5.5s-.2.5-.5.5-.5-.2-.5-.5.2-.5.5-.5M34.6 28.3h-.4v1.6h.4v-1.6zM42.2 0v.6h-1V0h-1.4v.6h-1V0h-1.5v1.7h.7v2.7h-1.1V6h-2.1V4.4h-1.1V1.7h.7V0h-1.5v.6h-1V0h-1.4v.6h-1.1V0H28v1.7h.7v2.7h-1.1V6h-2.1V4.4h-1.1V1.7h.6V0h-1.4v.6h-1V0h-1.5v.6h-1V0h-1.4v1.7h.6v2.7h-1.1V6h-2.1V4.4h-1V1.7h.6V0h-1.4v.6h-1V0h-1.5v.6h-1V0H9.3v1.7h.7v2.7H8.9V6H6.8V4.4H5.7V1.7h.7V0H4.9v.6h-1V0H2.5v.6h-1V0H0v1.7h.7v4.4l2.5 2.7v4.3H2v4.4h39.8v-4.4h-1.3V8.8L43 6.1V1.7h.7V0h-1.5z"/><path fill="#E20613" stroke="#FFF" stroke-width=".058" d="M27.2 34.8h8.7v3.5h-8.7zM27.2 30.2v4.1h10.6l-3-4.1zM16.5 30.2H8.9l-3 4.1h10.6zM7.8 34.8h8.7v3.5H7.8z"/><path fill="#FFF" d="M16.4 48.8h-1.6v-2.3c.2-.8 1.3-.8 1.6 0v2.3zM22.8 48.8h-2v-2.5c.3-1 1.7-1 2 0v2.5zM19.6 48.8h-2v-2.5c.3-1 1.7-1 2 0v2.5zM27.3 48.8h1.6v-2.3c-.2-.8-1.3-.8-1.6 0v2.3zM24.1 48.8h2v-2.5c-.3-1-1.7-1-2 0v2.5z"/><path fill="#FFF" stroke="#FFF" stroke-width=".058" d="M7.4 47.4H6.3v-1.3c.2-.5.9-.5 1.1 0v1.3zM9.6 47.4H8.5v-1.3c.2-.5.9-.5 1.1 0v1.3zM11.8 47.4h-1.1v-1.3c.2-.5.9-.5 1.1 0v1.3zM33 47.4h-1.1v-1.3c.2-.5.9-.5 1.1 0v1.3zM35.2 47.4h-1.1v-1.3c.2-.5.9-.5 1.1 0v1.3zM37.4 47.4h-1.1v-1.3c.2-.5.9-.5 1.1 0v1.3zM10.5 37.3H9.4V36c.2-.5.9-.5 1.1 0v1.3zM12.7 37.3h-1.1V36c.2-.5.9-.5 1.1 0v1.3zM14.9 37.3h-1.1V36c.2-.5.9-.5 1.1 0v1.3zM29.9 37.3h-1.1V36c.2-.5.9-.5 1.1 0v1.3zM32.1 37.3H31V36c.2-.5.9-.5 1.1 0v1.3zM34.3 37.3h-1.1V36c.2-.5.9-.5 1.1 0v1.3zM20.2 31.4h-1.1v-1.3c.2-.5.9-.5 1.1 0v1.3zM22.4 31.4h-1.1v-1.3c.2-.5.9-.5 1.1 0v1.3zM24.6 31.4h-1.1v-1.3c.2-.5.9-.5 1.1 0v1.3z"/><path fill="#E20613" stroke="#FFF" stroke-width=".058" d="M14.9 43.8c.2.1.5.2.9.2.8 0 1.2-.3 1.2-.3h.1l3.9-8.4-6.1 8.5zM17.7 43.8c.2.1.5.1 1 .1.7 0 1.2-.3 1.3-.4l1.5-8.6-3.8 8.9c-.1 0-.1 0 0 0zM20.6 43.8c.2.1.6.2 1.3.2.8 0 1.2-.1 1.4-.2l-1.4-8.9-1.3 8.9c-.1 0-.1 0 0 0zM12.1 43.7c.2.1.4.2.7.2.5 0 1.1-.2 1.4-.3h.1l5.9-8-8.1 8.1zM28.8 43.8l-6.1-8.6 3.9 8.4h.1s.4.3 1.2.3c.3.1.6 0 .9-.1zM26 43.8c.1 0 .1 0 0 0L22.2 35l1.5 8.6c.1.1.6.4 1.3.4.5 0 .8-.1 1-.2zM31.6 43.7l-8.2-8.2 5.9 8h.1c.3.1.9.3 1.4.3.4.1.6 0 .8-.1z"/><path fill="#FFF" d="M22.8 33l-.9 1-1-1 1-1 .9 1z"/><path fill="#E20613" d="M16.1 28.5h11.5v-2.4h-1.4v1.3h-2V26H23v1.4h-2.3V26h-1.2v1.4h-2v-1.3h-1.4v2.4z"/><path fill="none" stroke="#1D1D1B" stroke-width=".132" d="M42.5 17.5H1.2v39.3c0 1.7.7 3.5 3.4 4.2 2.7.7 12.6 3 14.4 3.5 2.4.6 2.9 2.5 2.9 2.5s.5-1.9 2.9-2.5c1.8-.4 11.8-2.8 14.4-3.5 2.7-.7 3.4-2.5 3.4-4.2-.1-1.8-.1-1.8-.1-39.3z"/></svg>