<?xml version="1.0" encoding="iso-8859-1"?>
<!-- Generator: Adobe Illustrator 16.0.0, SVG Export Plug-In . SVG Version: 6.00 Build 0)  -->
<!DOCTYPE svg PUBLIC "-//W3C//DTD SVG 1.1//EN" "http://www.w3.org/Graphics/SVG/1.1/DTD/svg11.dtd">
<svg version="1.1" id="Capa_1" xmlns="http://www.w3.org/2000/svg" xmlns:xlink="http://www.w3.org/1999/xlink" x="0px" y="0px"
	 width="96.682px" height="96.682px" viewBox="0 0 96.682 96.682" style="enable-background:new 0 0 96.682 96.682;"
	 xml:space="preserve">
<g>
	<path d="M48.343,0C21.686,0,0.002,21.683,0.002,48.339c0,26.657,21.684,48.343,48.341,48.343c26.653,0,48.337-21.686,48.337-48.343
		C96.68,21.686,74.996,0,48.343,0z M5.55,48.339c0-6.203,1.332-12.094,3.706-17.413l20.412,55.925
		C15.394,79.916,5.55,65.279,5.55,48.339z M48.343,91.135c-4.201,0-8.255-0.62-12.09-1.744l12.838-37.307l13.157,36.033
		c0.084,0.211,0.189,0.406,0.304,0.59C58.105,90.273,53.324,91.135,48.343,91.135z M54.238,28.277
		c2.576-0.136,4.896-0.409,4.896-0.409c2.307-0.272,2.037-3.659-0.271-3.523c0,0-6.932,0.543-11.405,0.543
		c-4.203,0-11.272-0.543-11.272-0.543c-2.305-0.136-2.573,3.39-0.27,3.523c0,0,2.183,0.272,4.486,0.409l6.667,18.266L37.706,74.63
		L22.125,28.279c2.579-0.136,4.898-0.408,4.898-0.408c2.303-0.272,2.034-3.661-0.275-3.523c0,0-6.929,0.542-11.405,0.542
		c-0.806,0-1.749-0.021-2.753-0.052C20.238,13.219,33.392,5.549,48.343,5.549c11.142,0,21.283,4.26,28.896,11.232
		c-0.187-0.009-0.364-0.033-0.556-0.033c-4.202,0-7.187,3.661-7.187,7.595c0,3.525,2.031,6.51,4.203,10.034
		c1.629,2.853,3.527,6.514,3.527,11.803c0,3.663-1.406,7.914-3.256,13.833l-4.268,14.263L54.238,28.277z M69.854,85.326l13.07-37.79
		c2.445-6.104,3.254-10.986,3.254-15.328c0-1.573-0.104-3.038-0.288-4.4c3.345,6.095,5.245,13.091,5.243,20.532
		C91.133,64.126,82.574,77.908,69.854,85.326z"/>
</g>
<g>
</g>
<g>
</g>
<g>
</g>
<g>
</g>
<g>
</g>
<g>
</g>
<g>
</g>
<g>
</g>
<g>
</g>
<g>
</g>
<g>
</g>
<g>
</g>
<g>
</g>
<g>
</g>
<g>
</g>
</svg>
