<svg xmlns="http://www.w3.org/2000/svg" viewBox="0 0 60 60"><path d="M54.168 0H5.832A2.836 2.836 0 0 0 3 2.832V29h54V2.832C57 1.272 55.73 0 54.168 0zM39 14.495A3.51 3.51 0 0 1 35.495 18h-10.99A3.51 3.51 0 0 1 21 14.495V13a1 1 0 0 1 2 0v1.495c0 .83.675 1.505 1.505 1.505h10.99c.83 0 1.505-.675 1.505-1.505V13a1 1 0 0 1 2 0v1.495zM3 57.168C3 58.728 4.27 60 5.832 60h48.336C55.728 60 57 58.73 57 57.168V31H3v26.168zM21 42a1 1 0 0 1 2 0v1.495c0 .83.675 1.505 1.505 1.505h10.99c.83 0 1.505-.675 1.505-1.505V42a1 1 0 0 1 2 0v1.495A3.51 3.51 0 0 1 35.495 47h-10.99A3.51 3.51 0 0 1 21 43.495V42z"/></svg>
