<?xml version="1.0" encoding="utf-8"?>
<!-- Generator: Adobe Illustrator 19.0.0, SVG Export Plug-In . SVG Version: 6.00 Build 0)  -->
<svg version="1.1" xmlns="http://www.w3.org/2000/svg" xmlns:xlink="http://www.w3.org/1999/xlink" x="0px" y="0px"
	 viewBox="-359 247.1 239.4 66.9" style="enable-background:new -359 247.1 239.4 66.9;" xml:space="preserve">
<style type="text/css">
	.st0{fill:#FFFFFF;}
	.st1{fill:#FFFFFF;stroke:#FFFFFF;stroke-width:5.756000e-02;}
	.st2{fill:none;stroke:#FFFFFF;stroke-width:0.2;}
</style>
<g id="Layer_2">
</g>
<g id="Layer_1">
	<g id="XMLID_2_">
		<g id="XMLID_54_">
			<polygon id="XMLID_72_" class="st0" points="-284.5,288.7 -284.5,281.5 -292.8,281.5 -292.8,288.7 -295.4,288.7 -295.4,272.2 
				-292.8,272.2 -292.8,279.2 -284.5,279.2 -284.5,272.2 -281.8,272.2 -281.8,288.7 			"/>
			<polygon id="XMLID_71_" class="st0" points="-275.7,288.7 -275.7,272.2 -266.9,272.2 -267.7,274.5 -273.1,274.5 -273.1,279.2 
				-267.7,279.2 -267.7,281.4 -273.1,281.4 -273.1,286.5 -266.8,286.5 -266.8,288.7 			"/>
			<polygon id="XMLID_70_" class="st0" points="-261.4,288.7 -261.4,272.2 -258.8,272.2 -258.8,286.5 -252.7,286.5 -252.7,288.7 			
				"/>
			<path id="XMLID_69_" class="st0" d="M-244.1,289c-2.3,0-3.8-0.8-4.9-1.4l1.1-2c0.8,0.6,2.1,1.2,3.7,1.2c1.3,0,2.9-0.6,2.9-2.1
				c0-2.5-4-3-6-5.3c-0.7-0.8-1.1-1.7-1.1-2.9c0-2.4,1.9-4.4,5.2-4.4c1.8,0,3.1,0.5,3.9,0.9v2.5c-1.1-0.7-2.4-1.1-3.8-1.1
				s-2.6,0.6-2.6,1.9c0,3.3,7.2,3.2,7.2,8.2C-238.5,287.2-241,289-244.1,289L-244.1,289z"/>
			<polygon id="XMLID_68_" class="st0" points="-233.3,288.7 -233.3,272.2 -230.6,272.2 -230.6,288.7 			"/>
			<path id="XMLID_67_" class="st0" d="M-212.5,288.7l-7.8-10.1c-0.8-1-1.2-1.7-1.6-2.4l0,0c0,0.6,0,1.4,0,2.2v10.4h-2.6v-16.6h2.7
				l7.5,9.8c0.9,1.2,1.4,1.8,1.7,2.5l0,0c0-0.7,0-1.5,0-2.3v-9.9h2.6v16.5h-2.5V288.7z"/>
			<path id="XMLID_66_" class="st0" d="M-196.9,289c-5,0-8.3-3.5-8.3-8.3c0-5,3.6-8.6,9-8.6c2.1,0,3.7,0.5,4.8,0.9v2.5
				c-1.2-0.6-2.8-1.2-4.6-1.2c-4.3,0-6.3,2.7-6.3,6.1c0,3.7,2.3,6.3,6.1,6.3c1.2,0,2.2-0.2,2.8-0.6v-5.7h2.6v7
				C-192.2,288.2-194.4,289-196.9,289L-196.9,289z"/>
			<path id="XMLID_62_" class="st0" d="M-180.1,281.5h-2.2v5h2.1c2.1,0,3.2-1,3.2-2.6C-177,282.5-178.2,281.5-180.1,281.5
				L-180.1,281.5z M-182.3,274.5v4.7h1.9c1.2,0,2.4-0.9,2.4-2.4c0-1.4-0.8-2.3-2.6-2.3H-182.3L-182.3,274.5z M-180.1,288.7h-4.9
				v-16.5h5c3.2,0,4.6,2.1,4.6,4.1c0,1.5-0.7,2.9-2.1,3.5l0,0c1.7,0.4,3.2,2,3.2,4C-174.3,286.1-175.8,288.7-180.1,288.7
				L-180.1,288.7z"/>
			<path id="XMLID_59_" class="st0" d="M-162.1,274.4c-3.3,0-5.6,2.4-5.6,6.2s2.2,6.2,5.6,6.2c3.3,0,5.5-2.4,5.5-6.2
				C-156.5,276.9-158.6,274.4-162.1,274.4L-162.1,274.4z M-168,274.5c1.5-1.5,3.6-2.4,6-2.4c2.6,0,4.8,1,6.3,2.6
				c1.4,1.5,2.1,3.5,2.1,5.9c0,2.5-0.8,4.7-2.4,6.2c-1.5,1.5-3.5,2.3-6,2.3c-2.3,0-4.3-0.7-5.7-2c-1.7-1.5-2.6-3.8-2.6-6.3
				C-170.4,278.2-169.5,276-168,274.5L-168,274.5z"/>
			<path id="XMLID_56_" class="st0" d="M-144.8,274.5h-1.5v5.5h1.6c1.7,0,3-1.3,3-2.9C-141.8,275.7-142.6,274.5-144.8,274.5
				L-144.8,274.5z M-140.2,288.7c-2.6-4.3-3.9-6.5-4.5-6.7h-1.5v6.7h-2.6v-16.5h4.1c4.1,0,5.7,2.1,5.7,4.6c0,2.3-1.5,3.7-3.1,4.4
				l0,0c0.7,0.3,2.4,3.3,5,7.5H-140.2L-140.2,288.7z"/>
			<path id="XMLID_55_" class="st0" d="M-125.7,289c-5,0-8.3-3.5-8.3-8.3c0-5,3.6-8.6,9-8.6c2.1,0,3.7,0.5,4.8,0.9v2.5
				c-1.2-0.6-2.8-1.2-4.6-1.2c-4.3,0-6.3,2.7-6.3,6.1c0,3.7,2.3,6.3,6.1,6.3c1.2,0,2.2-0.2,2.8-0.6v-5.7h2.6v7
				C-120.9,288.2-123.1,289-125.7,289L-125.7,289z"/>
		</g>
	</g>
	<g>
		<path class="st1" d="M-342.7,286.2h-8.9c-0.9,0.3-3,1.4-3,3.4c0,0.7,0.3,1.2,0.6,1.4h6.5L-342.7,286.2z"/>
		<path class="st1" d="M-322.8,286.2h-8.9l4.9,4.8h6.5c0.3-0.3,0.6-0.8,0.6-1.4C-319.7,287.5-321.9,286.5-322.8,286.2z"/>
		<path class="st1" d="M-320.8,298.2v2.4h-5.1v-2.4h-4v2.4h-5.2v-2.2h-4.2v2.2h-5.2v-2.4h-4v2.4h-5.1v-2.4h-4.2c0,4.5,0,5,0,5.8
			c0,1.7,0.7,3.5,3.4,4.1c2.7,0.7,12.6,3,14.4,3.4c2.4,0.6,2.9,2.5,2.9,2.5s0.5-1.9,2.9-2.5c1.8-0.4,11.7-2.8,14.4-3.4
			c2.7-0.7,3.4-2.5,3.4-4.1c0-0.9,0-1.3,0-5.8H-320.8z"/>
		<polygon class="st1" points="-341,273 -341,274.3 -340.1,274.3 -340.1,272.8 -337.8,272.8 -337.8,274.3 -336.6,274.3 
			-336.6,272.8 -334.3,272.8 -334.3,274.3 -333.4,274.3 -333.4,273 -332.9,273 -337.2,269.6 -337.2,269.6 -337.2,269.6 -341.5,273 
					"/>
		<path class="st0" d="M-337.2,269.5c0.2,0,0.4-0.2,0.4-0.4c0-0.2-0.2-0.4-0.4-0.4c-0.2,0-0.4,0.2-0.4,0.4
			C-337.6,269.3-337.4,269.5-337.2,269.5"/>
		<path class="st0" d="M-336.5,267.3c0,0-0.2,0.1-0.3,0.1l0,0c0,0-0.1,0-0.1,0c0,0,0,0,0,0c0-0.1,0-0.2,0-0.2c0-0.1,0.1-0.3,0.1-0.3
			l0.1-0.2l-0.2,0.1c0,0-0.2,0.1-0.3,0.1c-0.1,0-0.3-0.1-0.3-0.1l-0.2-0.1l0.1,0.2c0,0,0.1,0.2,0.1,0.3c0,0.1,0,0.2,0,0.2
			c0,0,0,0,0,0c0,0-0.1,0-0.1,0c-0.1,0-0.3-0.1-0.3-0.1l-0.1,0v0.5c0,0.1,0,0.4,0,0.4l0,0.1l0.1-0.1c0,0,0.1-0.1,0.2-0.1
			c0,0,0.1,0,0.1,0c0,0,0,0,0,0c0,0,0,0.1,0,0.1c0,0.1-0.1,0.4-0.1,0.4l0,0.1l0,0c0.1-0.1,0.3-0.2,0.5-0.2c0.2,0,0.4,0.1,0.5,0.2
			l0,0l0-0.1c0,0-0.1-0.3-0.1-0.4c0,0,0-0.1,0-0.1c0,0,0,0,0,0c0,0,0.1,0,0.1,0c0.1,0,0.2,0.1,0.2,0.1l0.1,0.1l0-0.1
			c0,0,0-0.2,0-0.4v-0.5L-336.5,267.3L-336.5,267.3z"/>
		<path class="st0" d="M-349.7,274.4c0.3,0,0.5,0.2,0.5,0.5c0,0.3-0.2,0.5-0.5,0.5c-0.3,0-0.5-0.2-0.5-0.5
			C-350.2,274.6-350,274.4-349.7,274.4"/>
		<polygon class="st0" points="-349.5,275.6 -350,275.6 -350,277.2 -349.5,277.2 -349.5,275.6 		"/>
		<path class="st0" d="M-324.7,274.4c0.3,0,0.5,0.2,0.5,0.5c0,0.3-0.2,0.5-0.5,0.5c-0.3,0-0.5-0.2-0.5-0.5
			C-325.2,274.6-325,274.4-324.7,274.4"/>
		<polygon class="st0" points="-324.5,275.6 -324.9,275.6 -324.9,277.2 -324.5,277.2 -324.5,275.6 		"/>
		<polygon class="st0" points="-316.9,247.4 -316.9,248.1 -317.9,248.1 -317.9,247.4 -319.3,247.4 -319.3,248.1 -320.3,248.1 
			-320.3,247.4 -321.8,247.4 -321.8,249.1 -321.1,249.1 -321.1,251.8 -322.2,251.8 -322.2,253.4 -324.3,253.4 -324.3,251.8 
			-325.4,251.8 -325.4,249.1 -324.7,249.1 -324.7,247.4 -326.2,247.4 -326.2,248.1 -327.2,248.1 -327.2,247.4 -328.6,247.4 
			-328.6,248.1 -329.6,248.1 -329.6,247.4 -331.1,247.4 -331.1,249.1 -330.4,249.1 -330.4,251.8 -331.5,251.8 -331.5,253.4 
			-333.6,253.4 -333.6,251.8 -334.7,251.8 -334.7,249.1 -334,249.1 -334,247.4 -335.5,247.4 -335.5,248.1 -336.5,248.1 
			-336.5,247.4 -337.9,247.4 -337.9,248.1 -338.9,248.1 -338.9,247.4 -340.4,247.4 -340.4,249.1 -339.7,249.1 -339.7,251.8 
			-340.8,251.8 -340.8,253.4 -342.9,253.4 -342.9,251.8 -344,251.8 -344,249.1 -343.3,249.1 -343.3,247.4 -344.8,247.4 
			-344.8,248.1 -345.8,248.1 -345.8,247.4 -347.2,247.4 -347.2,248.1 -348.2,248.1 -348.2,247.4 -349.7,247.4 -349.7,249.1 
			-349,249.1 -349,251.8 -350.1,251.8 -350.1,253.4 -352.2,253.4 -352.2,251.8 -353.3,251.8 -353.3,249.1 -352.6,249.1 
			-352.6,247.4 -354.1,247.4 -354.1,248.1 -355.1,248.1 -355.1,247.4 -356.5,247.4 -356.5,248.1 -357.5,248.1 -357.5,247.4 
			-359,247.4 -359,249.1 -358.3,249.1 -358.3,253.5 -355.8,256.2 -355.8,260.5 -357.1,260.5 -357.1,264.9 -317.4,264.9 
			-317.4,260.5 -318.6,260.5 -318.6,256.2 -316.1,253.5 -316.1,249.1 -315.4,249.1 -315.4,247.4 -316.9,247.4 		"/>
		<polygon class="st1" points="-331.9,277.6 -331.9,281.6 -321.3,281.6 -324.3,277.6 		"/>
		<polygon class="st1" points="-342.5,277.6 -350.1,277.6 -353.1,281.6 -342.5,281.6 		"/>
		<path class="st1" d="M-329.8,291.4c-0.2,0.1-0.7,0.4-1.4,0.4h0c-0.7,0-1.1-0.2-1.4-0.3c-0.2,0.1-0.7,0.3-1.4,0.3
			c-0.7,0-1.2-0.2-1.5-0.4c-0.2,0.2-0.7,0.4-1.7,0.3c-1,0-1.5-0.2-1.7-0.3c-0.3,0.1-0.8,0.4-1.5,0.4c-0.7,0-1.2-0.2-1.4-0.3
			c-0.2,0.1-0.7,0.3-1.4,0.3c-0.7,0-1.2-0.3-1.4-0.4c-0.2,0.1-0.7,0.2-1.2,0.3v5.7h2.1v2.4h3.7v-2.2h5.6v2.2h3.7v-2.4h2.1v-5.7
			C-329.1,291.7-329.6,291.5-329.8,291.4z M-342.6,296h-1.6v-2.3c0.2-0.8,1.3-0.8,1.6,0V296z M-339.5,296h-2v-2.5
			c0.3-0.9,1.6-0.9,2,0V296z M-336.2,296h-2v-2.5c0.3-0.9,1.6-0.9,2,0V296z M-333,296h-2v-2.5c0.3-0.9,1.6-0.9,2,0V296z M-330.2,296
			h-1.6v-2.3c0.2-0.8,1.3-0.8,1.6,0V296z"/>
		<path class="st1" d="M-347.2,291.5h-6.6v6h0.8v2.4h3.7v-2.4h2.9v-5.7C-346.7,291.7-347,291.6-347.2,291.5z M-351.6,294.7h-1.1
			v-1.3c0.2-0.5,0.9-0.5,1.1,0V294.7z M-349.5,294.7h-1.1v-1.3c0.2-0.5,0.9-0.5,1.1,0V294.7z M-347.3,294.7h-1.1v-1.3
			c0.2-0.5,0.9-0.5,1.1,0V294.7z"/>
		<path class="st1" d="M-327.3,291.5c-0.2,0.1-0.5,0.2-0.8,0.2v5.7h2.9v2.4h3.7v-2.3v-0.1h0.9v-6H-327.3z M-326.1,294.7h-1.1v-1.3
			c0.2-0.5,0.9-0.5,1.1,0V294.7z M-323.9,294.7h-1.1v-1.3c0.2-0.5,0.9-0.5,1.1,0V294.7z M-321.7,294.7h-1.1v-1.3
			c0.2-0.5,0.9-0.5,1.1,0V294.7z"/>
		<path class="st1" d="M-351.2,282.2v3.5h8.7v-3.5H-351.2z M-348.5,284.6h-1.1v-1.3c0.2-0.5,0.9-0.5,1.1,0V284.6z M-346.3,284.6
			h-1.1v-1.3c0.2-0.5,0.9-0.5,1.1,0V284.6z M-344.1,284.6h-1.1v-1.3c0.2-0.5,0.9-0.5,1.1,0V284.6z"/>
		<path class="st1" d="M-331.9,282.2v3.5h8.7v-3.5H-331.9z M-329.2,284.6h-1.1v-1.3c0.2-0.5,0.9-0.5,1.1,0V284.6z M-327,284.6h-1.1
			v-1.3c0.2-0.5,0.9-0.5,1.1,0V284.6z M-324.8,284.6h-1.1v-1.3c0.2-0.5,0.9-0.5,1.1,0V284.6z"/>
		<path class="st1" d="M-344.1,291.1c0.2,0.1,0.5,0.2,0.9,0.2l0,0c0.8,0,1.2-0.3,1.2-0.3l0,0l0,0l0.1,0l3.9-8.4L-344.1,291.1
			C-344.1,291.1-344.1,291.1-344.1,291.1L-344.1,291.1z"/>
		<path class="st1" d="M-341.4,291.1c0.2,0.1,0.5,0.1,1,0.1l0,0c0.7,0,1.2-0.3,1.3-0.4l0,0c0,0,0,0,0,0l0,0l0,0l1.5-8.6
			L-341.4,291.1C-341.4,291.1-341.4,291.1-341.4,291.1L-341.4,291.1z"/>
		<path class="st1" d="M-338.5,291.1c0.2,0.1,0.6,0.2,1.3,0.2l0,0c0.8,0,1.2-0.1,1.4-0.2l0,0l-1.4-8.9L-338.5,291.1
			C-338.6,291.1-338.5,291.1-338.5,291.1L-338.5,291.1z"/>
		<path class="st1" d="M-346.9,291c0.2,0.1,0.4,0.2,0.7,0.2l0,0c0.5,0,1.1-0.2,1.4-0.3l0,0c0.1,0,0.1,0,0.1,0l0,0l0,0l5.9-8
			L-346.9,291C-346.9,291-346.9,291-346.9,291L-346.9,291z"/>
		<path class="st1" d="M-330.3,291.1C-330.3,291.1-330.3,291.1-330.3,291.1l-6.1-8.5l3.9,8.4l0.1,0l0,0l0,0c0,0,0.4,0.3,1.2,0.3l0,0
			C-330.8,291.3-330.5,291.2-330.3,291.1L-330.3,291.1z"/>
		<path class="st1" d="M-333,291.1C-333,291.1-333,291.1-333,291.1l-3.8-8.8l1.5,8.6l0,0l0,0c0,0,0,0,0,0l0,0
			c0.1,0.1,0.6,0.4,1.3,0.4l0,0C-333.6,291.3-333.2,291.2-333,291.1L-333,291.1z"/>
		<path class="st1" d="M-327.5,291C-327.5,291-327.5,291-327.5,291l-8.2-8.1l5.9,8l0,0l0,0c0,0,0,0,0.1,0l0,0
			c0.3,0.1,0.9,0.3,1.4,0.3l0,0C-327.9,291.2-327.7,291.1-327.5,291L-327.5,291z"/>
		<path class="st1" d="M-342,276.4v9.1l4.5-4.4l-0.7-0.7l1-1l1,1l-0.7,0.7l4.5,4.4v-9.1H-342z M-338.8,278.7h-1.1v-1.3
			c0.2-0.5,0.9-0.5,1.1,0V278.7z M-336.7,278.7h-1.1v-1.3c0.2-0.5,0.9-0.5,1.1,0V278.7z M-334.5,278.7h-1.1v-1.3
			c0.2-0.5,0.9-0.5,1.1,0V278.7z"/>
		<polygon class="st0" points="-342.9,275.8 -331.5,275.8 -331.5,273.5 -332.9,273.5 -332.9,274.8 -334.8,274.8 -334.8,273.4 
			-336.1,273.4 -336.1,274.8 -338.3,274.8 -338.3,273.4 -339.6,273.4 -339.6,274.8 -341.6,274.8 -341.6,273.5 -342.9,273.5 
			-342.9,275.8 		"/>
		<path class="st2" d="M-316.6,264.9h-20.6l0,0h0l0,0h-20.6c0,37.4,0,37.4,0,39.2c0,1.7,0.7,3.5,3.4,4.1c2.7,0.7,12.6,3,14.4,3.4
			c2.4,0.6,2.9,2.5,2.9,2.5s0.5-1.9,2.9-2.5c1.8-0.4,11.7-2.8,14.4-3.4c2.7-0.7,3.4-2.5,3.4-4.1
			C-316.6,302.3-316.6,302.3-316.6,264.9L-316.6,264.9z"/>
	</g>
</g>
</svg>
