<?xml version="1.0" encoding="UTF-8" standalone="no"?>
<svg
   xml:space="preserve"
   viewBox="21.62 53.42 1228.53 328.59"
   version="1.1"
   id="svg8"
   sodipodi:docname="logotype-municipio-union-split-gradient-colorize.svg"
   inkscape:version="1.1.1 (c3084ef, 2021-09-22)"
   xmlns:inkscape="http://www.inkscape.org/namespaces/inkscape"
   xmlns:sodipodi="http://sodipodi.sourceforge.net/DTD/sodipodi-0.dtd"
   xmlns:xlink="http://www.w3.org/1999/xlink"
   xmlns="http://www.w3.org/2000/svg"
   xmlns:svg="http://www.w3.org/2000/svg"><defs
   id="defs12"><linearGradient
     inkscape:collect="always"
     id="linearGradient6847"><stop
       style="stop-color:#666faf;stop-opacity:1"
       offset="0"
       id="stop6843" /><stop
       style="stop-color:#1c2563;stop-opacity:1"
       offset="1"
       id="stop6845" /></linearGradient><linearGradient
     id="linearGradient6730"
     inkscape:swatch="solid"><stop
       style="stop-color:#000000;stop-opacity:1;"
       offset="0"
       id="stop6728" /></linearGradient><linearGradient
     inkscape:collect="always"
     xlink:href="#linearGradient6847"
     id="linearGradient6849"
     x1="108.33203"
     y1="3.4042969"
     x2="251.8105"
     y2="334.65726"
     gradientUnits="userSpaceOnUse" /></defs><sodipodi:namedview
   id="namedview10"
   pagecolor="#ffffff"
   bordercolor="#666666"
   borderopacity="1.0"
   inkscape:pageshadow="2"
   inkscape:pageopacity="0.0"
   inkscape:pagecheckerboard="0"
   showgrid="false"
   inkscape:zoom="0.91735649"
   inkscape:cx="645.87759"
   inkscape:cy="177.13942"
   inkscape:window-width="1920"
   inkscape:window-height="1147"
   inkscape:window-x="1920"
   inkscape:window-y="25"
   inkscape:window-maximized="0"
   inkscape:current-layer="svg8" />
  <path
   id="path42"
   transform="translate(21.62,53.42)"
   d="m 1105.5488,91.519531 c -2.8033,-0.01563 -5.6765,0.822172 -8.625,2.451172 -5.893,5.258 -7.4296,11.365577 -4.5566,17.142577 2.639,5.303 8.9784,8.41692 15.1074,7.41992 6.567,-1.069 11.1254,-5.48172 11.8164,-11.76172 0.57,-5.183 -1.1062,-9.620074 -5.5332,-12.580074 -2.672,-1.7865 -5.4056,-2.65625 -8.209,-2.671875 z m -159.00583,0.06445 c -9.07222,-0.262226 -16.21456,6.738673 -14.22656,16.998046 0.741,1.708 1.25156,3.15433 2.10156,4.36133 3.625,5.15 10.54748,7.05011 17.02148,4.78711 5.59,-1.953 9.00561,-7.01338 8.84961,-13.10938 -0.15,-5.871992 -4.03776,-11.008746 -9.75976,-12.468746 -1.35375,-0.345625 -2.6903,-0.530899 -3.98633,-0.56836 z m -148.04883,0.339844 c -6.82898,0.398813 -11.74033,4.410574 -12.73633,10.861332 -1.105,7.147 2.84246,13.27437 9.81446,15.23437 7.246,2.037 14.36426,-1.00747 17.19726,-7.35547 3.048,-6.828 0.65314,-13.333623 -6.88086,-17.890622 -2.62875,-0.713251 -5.1182,-0.982547 -7.39453,-0.84961 z M 523.50391,105.77344 c -3.37,-0.123 -4.93124,1.00639 -6.24024,4.15039 -7.477,17.966 -15.22676,35.81898 -22.88476,53.70898 -3.899,9.106 -7.80185,18.20885 -12.08985,28.21485 -1.142,-2.352 -1.89453,-3.75394 -2.51953,-5.21094 -10.955,-25.531 -21.85992,-51.08336 -32.91992,-76.56836 -0.722,-1.665 -2.56342,-3.95339 -3.98242,-4.02539 -7.775,-0.395 -15.58114,-0.1875 -23.99414,-0.1875 v 53.72461 61.92383 h 23.4375 v -72.48633 l 0.90039,-0.082 30.21094,72.84961 c 4.519,0 8.85653,-0.26297 13.14453,0.082 3.462,0.279 4.86146,-1.10441 6.10547,-4.19141 8.58199,-21.287 17.37998,-42.48898 26.125,-63.70898 0.70398,-1.709 1.53654,-3.36297 2.31054,-5.04297 l 1.03516,0.33594 v 72.17382 h 22.95703 V 105.85156 c -7.357,0 -14.4837,0.17988 -21.5957,-0.0781 z m 659.84569,22.38086 c -5.5166,-0.2231 -11.1977,0.45695 -16.8262,2.12695 -33.294,9.879 -38.1443,44.62056 -28.5703,66.72656 8.721,20.138 30.063,29.80203 54.668,24.83203 6.751,-3.216 13.8671,-5.38931 19.2891,-9.69531 17.094,-13.58 21.516,-40.04445 10.871,-59.93945 -7.8029,-14.583 -22.8817,-23.3815 -39.4316,-24.05078 z m -5.0058,20.41211 c 1.4817,-0.11565 3.0106,-0.10201 4.5781,0.0469 1.7914,0.17015 3.6311,0.51588 5.5058,1.04688 20.197,7.55 19.5165,36.69276 8.4825,46.88476 -6.971,6.439 -15.2256,8.06672 -24.1016,5.26172 -9.461,-2.99 -14.0171,-10.36023 -15.2051,-19.74023 -0.578,-4.567 -0.6121,-9.40116 0.2149,-13.91016 2.1345,-11.62449 10.1534,-18.78034 20.5254,-19.58984 z M 1035.3496,128.1875 c -11.0714,-0.43552 -21.1539,3.67089 -29.6934,12.90039 -0.244,0.263 -0.7411,0.29195 -1.6601,0.62695 v -11.70898 h -22.73438 v 135.26953 h 23.04098 v -56.31445 c 9.624,10.854 20.8028,15.19301 34.5528,14.04101 14.145,-1.741 24.3136,-8.7485 31.0996,-20.6875 7.109,-12.508 8.1609,-26.00784 5.2519,-39.71484 -3.384,-15.94 -12.4345,-27.81438 -28.4765,-32.48438 -3.8898,-1.13275 -7.6904,-1.78256 -11.3809,-1.92773 z m -9.3769,20.45898 c 2.2071,-0.19271 4.521,-0.0809 6.9335,0.33985 9.5302,1.662 15.9211,7.6887 18.6211,16.8457 3.504,11.88 1.5373,22.75494 -7.8847,31.58594 -8.551,6.289 -17.1536,7.33865 -25.9356,2.84765 -8.741,-4.46899 -12.8472,-12.15756 -13.4472,-21.85156 -0.443,-7.17 0.5724,-13.96276 4.9824,-19.88476 4.452,-5.98125 10.1092,-9.30466 16.7305,-9.88282 z M 871.85742,128.29492 c -12.12328,0.31397 -23.1185,4.60564 -32.09375,14.83789 -9.643,10.995 -11.95619,24.2416 -10.74219,38.3086 3.724,43.139 47.80369,49.33543 70.42969,35.02343 9.307,-5.889 15.17256,-14.39776 17.72656,-25.75976 -7.829,0 -14.97337,-0.0902 -22.10937,0.0918 -1.147,0.029 -2.83273,1.00114 -3.30274,1.99414 -4.11198,8.684 -11.39698,11.27918 -20.20898,10.49218 -9.417,-0.841 -15.64586,-6.54251 -17.50586,-15.35351 -1.475,-6.991 -1.68453,-14.6125 -0.64453,-21.6875 1.609,-10.936 8.14747,-16.80028 17.73047,-18.23828 9.243,-1.387 16.18922,2.64367 21.69922,12.76367 h 4.79492 19.54297 c -0.361,-1.647 -0.48688,-2.63646 -0.79688,-3.56446 -5.207,-15.59399 -15.80968,-25.27474 -32.05468,-27.96874 -4.25875,-0.70625 -8.42375,-1.04411 -12.46485,-0.93946 z m -142.31445,0.0469 c -8.789,0.0491 -17.56661,3.04661 -24.30859,8.97461 -1.00801,0.886 -2.08585,1.69393 -3.96485,3.21093 v -10.53711 h -22.69726 v 91.81055 c 6.897,0 13.53039,2.4e-4 20.65039,-0.01 1.06,-1.489 2.11781,-2.96322 2.13281,-4.44922 0.167,-16.49 -0.14088,-32.99071 0.32812,-49.47071 0.356,-12.513 8.91649,-20.15456 21.02149,-19.85156 11.969,0.299 19.60712,7.96489 19.82812,20.46289 0.243,13.823 0.0991,27.65347 0.1211,41.48047 0.006,3.79 0,7.58056 0,11.47656 h 23.40429 c 0,-1.837 0.003,-3.31211 0,-4.78711 -0.038,-17.491 0.25172,-34.99075 -0.23828,-52.46875 -0.291,-10.41 -3.63934,-19.98395 -11.90234,-27.12695 -6.785,-5.8645 -15.586,-8.76397 -24.375,-8.71484 z m -97.52539,1.55859 c 0,2.167 0.0111,4.1298 -0.002,6.0918 -0.10698,16.328 0.10888,32.66747 -0.45312,48.98047 -0.342,9.948 -6.78716,16.56309 -15.78516,17.87109 -14.98,2.178 -24.62137,-5.83995 -24.85937,-21.12695 -0.24,-15.497 -0.0672,-30.99905 -0.0742,-46.49805 v -5.14453 h -23.01758 c 0,19.523 -0.87778,38.71492 0.19922,57.79492 1.742,30.863 27.26425,38.65227 45.74023,33.69727 6.28702,-1.686 11.93393,-5.76494 18.04493,-8.83594 l 0.41992,8.68164 h 23.10742 v -74.83008 -16.68164 z m 156.0918,0.0625 v 48.61719 42.97461 h 22.875 v -91.5918 z m 146.27929,0.0234 v 67.59375 23.94726 h 22.83789 v -91.54101 z m 159.15433,0.0332 v 6.69336 84.71875 h 22.582 v -91.41211 z" /><path
   id="path2"
   transform="translate(21.62,53.42)"
   d="m 213.00391,0 c 2.221,1.993 3.34187,2.9606562 4.42187,3.9726562 16.225,15.1989998 24.941,33.9812348 25.875,56.1152348 0.604,14.311 0.34947,28.656327 0.48047,43.486329 -0.001,3.665 0.30578,6.86828 -0.0742,9.98828 -0.526,4.306 1.25964,7.01309 4.43164,9.74609 12.242,10.551 24.23294,21.39247 36.33594,32.10547 4.782,4.234 9.61227,8.41541 15.07227,13.19141 0.12,-2.159 0.21228,-3.28797 0.23828,-4.41797 0.242,-10.495 0.32781,-20.99833 0.75781,-31.48633 0.289,-7.08 5.22148,-11.37859 11.64648,-10.68359 5.692,0.616 8.94922,4.25981 9.07422,11.13281 0.284,15.661 0.97981,31.36652 0.13281,46.97852 -0.492,9.09 4.81633,12.657 10.86133,17.125 9.059,-41.917 9.6913,-83.20703 -1.0957,-124.457035 -19.381,7.06 -37.33691,6.585156 -52.87891,-7.464844 C 260.2912,49.067031 258.30262,29.241234 267.39062,7.2402344 249.71764,2.7902344 232.12891,0.76 213.00391,0 Z M 108.33203,3.4042969 C 54.489032,8.0642969 -7.1310781,75.46475 0.66992188,121.71875 1.6329219,119.42575 2.4665781,117.48239 3.2675781,115.52539 12.773578,92.318392 24.947375,70.567875 39.484375,50.171875 c 6.588,-9.242 13.984844,-9.222109 20.339844,0.08789 6.561,9.613 12.487734,19.661343 18.677734,29.527343 0.902,1.438 1.734611,2.91886 2.599609,4.38086 l 1.927735,-0.400391 c 0,-8.424 -0.100563,-16.847531 0.02344,-25.269531 0.19,-12.955 3.943329,-24.893234 10.861328,-36.240235 A 6397.807,6397.807 0 0 1 108.33203,3.4042969 Z m 51.22852,1.1308593 c -3.22789,0.1900763 -6.5216,0.6259219 -9.8711,1.3105469 -20.457,4.1809999 -44.85929,24.0735309 -45.27929,55.2695309 -0.264,19.662 0.20218,39.342186 -0.38282,58.992186 -0.425,14.338 1.88177,28.24419 5.13477,41.99219 1.277,5.397 4.84461,10.25122 7.72461,16.07422 11.247,-9.941 21.35716,-18.83019 31.41016,-27.78321 4.57099,-4.072 4.79148,-14.28992 0.52148,-18.66992 -6.398,-6.559 -12.96819,-12.96304 -19.11719,-19.74804 -4.373,-4.825 -4.32459,-11.54988 -0.55859,-15.421879 3.974,-4.086 9.99844,-4.031859 15.39844,0.244141 2.118,1.678 4.07976,3.552248 6.75976,5.906248 0.134,-2.625 0.26102,-4.228936 0.29102,-5.835936 0.157,-8.332 0.18404,-16.667187 0.49804,-24.992187 0.085,-2.247 0.51035,-4.77086 1.65235,-6.630859 2.49,-4.053 6.38359,-5.729376 11.18359,-4.609376 4.508,1.053 7.55011,4.695079 7.66211,9.830079 0.371,17.16 0.56184,34.323329 0.83984,51.486329 0.025,1.536 0.17699,3.07178 0.33399,5.67578 9.586,-8.37 18.20837,-15.92431 26.85937,-23.44531 6.173,-5.367004 11.9885,-12.164628 21.0625,-4.890628 0,-12.951 -0.0665,-25.072359 0.0195,-37.193359 0.069,-9.735 -2.48443,-18.740781 -7.27343,-27.550781 h 0.002 C 201.53766,13.852922 182.1558,3.2046231 159.56057,4.5351562 Z M 288.89648,15.433594 c -7.992,9.492 -6.82864,23.345359 2.44336,32.818359 8.457,8.64 22.71707,10.140297 31.16407,3.279297 -3.564,-9.986 -12.95352,-21.666031 -24.60352,-30.457031 -3.213,-2.034 -6.13791,-3.854625 -9.00391,-5.640625 z M 49.460938,73.554688 c -3.277001,5.462998 -6.110844,9.948453 -8.714844,14.564453 -12.395,21.969999 -23.027922,44.639379 -28.044922,69.609379 -1.537,7.651 -0.765608,14.4317 3.15039,21.4707 12.353001,22.206 27.970954,41.73586 46.376954,59.13086 2.715,2.567 5.570593,4.98544 8.558593,7.64844 0.967,-1.375 1.579797,-2.15129 2.091797,-2.98829 2.647,-4.334 4.970641,-8.23192 -0.443359,-12.79492 -3.502,-2.951 -2.810938,-8.4957 0.539062,-12.2207 2.665,-2.964 6.05386,-5.31192 8.50586,-8.41992 2.062,-2.613 4.17139,-5.78513 4.65039,-8.95313 2.738,-18.099 2.762063,-36.16842 -2.460937,-54.35742 -7.41,-26.144 -19.248984,-49.700453 -34.208984,-72.689452 z M 213.67969,123.41211 c -1.52013,0.0159 -3.01475,0.86869 -4.84375,2.49219 -32.264,28.642 -64.67313,57.11823 -96.95313,85.74023 -1.174,1.041 -2.04659,3.08588 -2.05859,4.67188 -0.142,18.326 -0.11716,36.65542 -0.0352,54.98242 0.006,1.352 0.37507,3.3564 1.28906,3.9414 6.38301,4.082 12.95441,7.87133 20.06641,12.11133 0.165,-2.236 0.32989,-3.49962 0.33789,-4.76562 0.101,-14.827 0.0786,-29.65742 0.3086,-44.48242 0.102,-6.515 3.31507,-10.34052 9.58007,-10.47852 a 985.856,985.856 0 0 1 44.4668,0.0215 c 6.04,0.139 9.08272,3.99782 9.38672,10.13282 0.125,2.494 0.16683,4.99614 0.17383,7.49414 0.066,23.159 0.19903,46.31856 0.082,69.47656 -0.019,3.623 1.00664,5.43027 4.55664,6.32227 5.961,1.497 11.77228,3.60217 17.73828,5.07617 29.263,7.232 52.77103,-1.67036 70.83203,-25.56836 -1.977,-0.036 -3.95369,-0.10452 -5.92969,-0.10352 -17.967,0.016 -35.93443,0.16005 -53.89843,-0.002 -5.599,-0.051 -9.33582,-3.95342 -9.38282,-9.60742 -0.151,-17.801 -0.1469,-35.6043 -0.004,-53.4043 0.044,-5.532 4.05675,-9.8482 9.84375,-9.9082 a 1761.392,1761.392 0 0 1 54.39258,0.27734 c 5.536,0.114 8.57139,4.29156 8.65039,10.85156 0.172,14.141 0.11692,28.28379 0.16992,42.42579 0.016,4.324 0.0834,8.64893 0.52344,13.21093 0.396,0.237 0.32031,0.20899 0.32031,0.20899 0.428,-0.731 0.85611,-1.46025 1.66211,-2.65625 3.534,-5.942 6.76008,-11.3793 9.83008,-16.9043 8.78,-15.799 14.98589,-32.23398 12.46289,-50.83398 -0.333,-2.455 0.2917,-5.05466 -0.1543,-7.47266 -0.386,-2.09 -1.13509,-4.60969 -2.62109,-5.92969 -31.886,-28.316 -63.96788,-56.41297 -95.79688,-84.79297 -1.9305,-1.722 -3.47597,-2.54322 -4.99609,-2.52734 z m -60.64844,125.37891 c 0,16.276 -0.0172,32.36126 0.0508,48.44726 0.004,0.849 0.50506,2.12152 1.16406,2.47852 6.317,3.421 12.7193,6.68751 19.7793,10.35351 v -16.49609 -44.7832 z m 87.35156,0.35937 v 14.4375 h 0.002 v 15.56055 h 30.39062 v -29.99805 z"
   style="fill-opacity:1;fill:url(#linearGradient6849)" />
  
  
</svg>
