<?xml version="1.0" standalone="no"?>
<!DOCTYPE svg PUBLIC "-//W3C//DTD SVG 20010904//EN"
 "http://www.w3.org/TR/2001/REC-SVG-20010904/DTD/svg10.dtd">
<svg version="1.0" xmlns="http://www.w3.org/2000/svg"
 width="522.000000pt" height="200.000000pt" viewBox="0 0 522.000000 200.000000"
 preserveAspectRatio="xMidYMid meet">

<g transform="translate(0.000000,200.000000) scale(0.100000,-0.100000)"
fill="#000000" stroke="none">
<path d="M2522 1553 c-65 -32 -84 -126 -37 -182 53 -62 137 -62 190 0 47 57
27 151 -39 183 -43 20 -72 20 -114 -1z"/>
<path d="M3302 1550 c-90 -55 -72 -193 29 -220 139 -38 219 145 97 220 -42 25
-84 25 -126 0z"/>
<path d="M4294 1554 c-63 -31 -85 -125 -42 -179 50 -64 136 -68 188 -9 53 61
34 161 -35 190 -43 18 -72 17 -111 -2z"/>
<path d="M0 1060 l0 -480 110 0 110 0 1 348 0 347 115 -348 115 -348 86 3 87
3 120 352 121 352 3 -354 2 -355 110 0 110 0 0 480 0 480 -167 -2 -166 -3
-106 -297 c-58 -164 -109 -294 -112 -290 -4 4 -53 139 -110 300 l-103 292
-163 0 -163 0 0 -480z"/>
<path d="M2100 1239 c-25 -11 -55 -30 -67 -41 l-23 -21 0 31 0 32 -105 0 -105
0 0 -330 0 -330 109 0 110 0 3 216 3 216 33 29 c34 31 85 39 123 19 43 -24 49
-57 49 -275 l0 -205 110 0 110 0 0 183 c0 299 -18 390 -90 450 -60 51 -180 62
-260 26z"/>
<path d="M2957 1249 c-129 -30 -235 -142 -257 -268 -5 -33 -8 -1 -9 107 l-1
152 -110 0 -110 0 0 -330 0 -330 110 0 110 0 1 153 c1 143 1 149 13 97 29
-137 128 -228 281 -260 82 -17 161 -6 258 35 12 5 17 3 17 -9 0 -14 15 -16
105 -16 l105 0 0 330 0 330 -105 0 c-88 0 -105 -3 -105 -15 0 -13 -4 -14 -22
-4 -65 35 -196 48 -281 28z m303 -341 l0 -202 -50 49 -50 49 -24 -23 c-34 -32
-100 -38 -146 -14 -52 27 -80 75 -80 140 0 96 48 154 132 161 44 3 59 0 89
-21 l37 -25 43 44 c24 24 44 44 46 44 2 0 3 -91 3 -202z"/>
<path d="M3825 1245 c-22 -9 -57 -29 -77 -46 l-38 -30 0 36 0 35 -95 0 -95 0
0 -485 0 -485 105 0 105 0 0 186 0 186 30 -25 c42 -36 95 -51 176 -52 59 0 80
5 129 30 72 37 127 104 155 190 l19 60 0 -132 1 -133 110 0 110 0 1 138 0 137
20 -64 c27 -85 106 -167 194 -201 84 -33 225 -33 307 -1 75 29 150 97 185 169
24 50 27 69 27 152 1 76 -4 104 -21 142 -32 70 -103 141 -176 174 -56 26 -73
29 -167 29 -94 0 -111 -3 -165 -28 -97 -45 -166 -124 -191 -217 -12 -42 -13
-35 -13 93 l-1 137 -110 0 -110 0 -1 -127 c-1 -79 -4 -116 -9 -98 -24 97 -90
180 -173 215 -66 29 -176 36 -232 15z m125 -193 c41 -20 80 -89 80 -141 0 -58
-37 -121 -84 -142 -133 -60 -255 41 -223 186 8 41 47 91 82 105 34 15 109 11
145 -8z m957 1 c93 -44 108 -191 28 -262 -142 -124 -333 52 -234 215 37 60
133 82 206 47z"/>
<path d="M1142 983 c3 -249 4 -260 27 -307 32 -65 91 -102 175 -111 75 -8 129
5 184 45 l42 30 0 -30 0 -30 105 0 105 0 0 330 0 330 -105 0 -105 0 0 -172
c-1 -95 -5 -193 -9 -218 -16 -79 -86 -120 -154 -89 -48 22 -52 40 -55 267 l-3
212 -105 0 -105 0 3 -257z"/>
</g>
</svg>
