<?xml version="1.0" standalone="no"?>
<!DOCTYPE svg PUBLIC "-//W3C//DTD SVG 20010904//EN"
 "http://www.w3.org/TR/2001/REC-SVG-20010904/DTD/svg10.dtd">
<svg version="1.0" xmlns="http://www.w3.org/2000/svg"
 width="1267.000000pt" height="328.000000pt" viewBox="0 0 1267.000000 328.000000"
 preserveAspectRatio="xMidYMid meet">

<g transform="translate(0.000000,328.000000) scale(0.100000,-0.100000)"
fill="#000000" stroke="none">
<path d="M6493 3264 c-60 -22 -127 -86 -160 -151 -22 -46 -27 -71 -27 -127 -1
-87 14 -132 64 -195 28 -35 59 -59 104 -81 61 -31 71 -32 148 -28 95 5 141 24
202 84 59 58 86 124 86 216 0 67 -4 84 -33 139 -36 70 -102 128 -167 148 -51
15 -166 13 -217 -5z"/>
<path d="M10415 3268 c-46 -17 -109 -63 -139 -102 -39 -52 -57 -112 -58 -189
0 -118 60 -213 172 -273 27 -15 56 -19 130 -19 88 0 99 2 150 31 65 36 123
107 141 173 19 66 14 161 -11 218 -27 62 -107 137 -167 157 -53 18 -172 20
-218 4z"/>
<path d="M0 2000 l0 -1220 275 0 275 0 1 928 1 927 307 -925 307 -925 211 -3
211 -2 29 82 c17 46 160 461 319 924 l289 841 3 -923 2 -924 275 0 275 0 0
1220 0 1220 -412 0 -413 0 -280 -785 c-154 -432 -282 -785 -285 -785 -3 0
-129 352 -282 783 l-276 782 -416 3 -416 2 0 -1220z"/>
<path d="M5474 2481 c-127 -35 -225 -95 -294 -182 l-40 -51 0 106 0 106 -255
0 -255 0 0 -840 0 -840 265 0 265 0 0 473 c0 500 5 558 49 644 23 47 80 99
130 121 23 10 68 15 121 16 102 0 154 -22 200 -86 63 -87 64 -92 68 -655 l3
-513 266 0 265 0 -5 573 c-5 582 -8 637 -47 772 -36 124 -133 247 -238 303
-93 49 -155 63 -297 68 -107 3 -143 1 -201 -15z"/>
<path d="M7700 2493 c-62 -7 -199 -44 -270 -73 -80 -33 -185 -99 -252 -159
-100 -89 -198 -250 -238 -393 -27 -93 -37 -293 -21 -398 46 -296 251 -551 528
-658 141 -55 267 -75 428 -69 194 7 340 47 460 126 l60 40 3 -455 2 -454 265
0 265 0 0 471 0 471 53 -48 c110 -101 230 -143 432 -151 98 -4 149 -1 205 11
308 66 546 353 600 725 17 114 8 313 -19 416 -46 175 -154 342 -282 440 -77
58 -203 119 -290 140 -102 25 -281 30 -364 11 -118 -28 -229 -88 -312 -170
l-73 -72 0 108 0 108 -240 0 -240 0 0 -65 c0 -36 -2 -65 -4 -65 -1 0 -33 20
-70 44 -145 95 -399 144 -626 119z m699 -875 l0 -593 -149 154 -149 155 -44
-41 c-92 -85 -183 -107 -316 -79 -90 19 -145 50 -204 116 -64 72 -89 141 -95
267 -3 84 -1 114 17 170 52 167 186 264 371 267 78 1 91 -2 152 -32 37 -18 79
-47 94 -64 l26 -32 145 152 c80 84 147 152 149 152 2 0 4 -267 3 -592z m976
412 c80 -13 174 -61 220 -111 64 -71 97 -157 103 -263 7 -147 -22 -244 -103
-334 -110 -122 -337 -157 -501 -77 -64 31 -138 109 -169 178 -34 73 -47 179
-35 269 25 177 135 298 300 334 70 16 110 16 185 4z"/>
<path d="M11575 2490 c-226 -35 -450 -159 -577 -318 -67 -85 -138 -226 -164
-327 -29 -109 -26 -352 4 -465 103 -378 428 -619 858 -637 199 -9 368 24 519
99 215 108 381 309 439 534 22 87 22 401 0 488 -36 140 -125 288 -232 387
-175 162 -374 238 -642 244 -80 2 -172 0 -205 -5z m279 -465 c83 -18 138 -49
195 -110 146 -159 141 -453 -10 -604 -87 -86 -224 -125 -365 -103 -144 23
-236 90 -297 220 -31 64 -32 72 -32 192 0 119 1 128 31 191 42 88 93 142 169
180 98 48 193 59 309 34z"/>
<path d="M2923 1893 c5 -602 10 -666 57 -807 43 -130 139 -240 256 -292 117
-52 331 -70 462 -39 122 29 231 97 303 188 l39 49 0 -106 0 -106 255 0 255 0
0 840 0 840 -265 0 -265 0 0 -473 c0 -299 -4 -495 -11 -532 -21 -113 -90 -206
-175 -236 -22 -8 -75 -14 -119 -13 -131 0 -195 48 -238 176 -20 60 -21 87 -25
571 l-4 507 -265 0 -265 0 5 -567z"/>
<path d="M6340 1620 l0 -840 265 0 265 0 0 840 0 840 -265 0 -265 0 0 -840z"/>
<path d="M10260 1620 l0 -840 260 0 260 0 0 840 0 840 -260 0 -260 0 0 -840z"/>
</g>
</svg>
