<?xml version="1.0" standalone="no"?>
<!DOCTYPE svg PUBLIC "-//W3C//DTD SVG 20010904//EN"
 "http://www.w3.org/TR/2001/REC-SVG-20010904/DTD/svg10.dtd">
<svg version="1.0" xmlns="http://www.w3.org/2000/svg"
 width="3000.000000pt" height="1187.000000pt" viewBox="0 0 3000.000000 1187.000000"
 preserveAspectRatio="xMidYMid meet">

<g transform="translate(0.000000,1187.000000) scale(0.100000,-0.100000)"
fill="#000000" stroke="none">
<path d="M14390 9429 c-179 -17 -322 -80 -430 -189 -109 -109 -151 -217 -151
-384 0 -124 15 -193 60 -276 33 -61 113 -150 161 -180 22 -14 40 -27 40 -31 0
-7 100 -51 150 -66 150 -46 322 -51 460 -13 105 28 152 50 228 103 104 74 182
181 215 296 16 56 20 249 6 301 -43 165 -142 285 -299 361 -102 50 -157 67
-254 75 -33 3 -72 6 -86 8 -14 1 -59 -1 -100 -5z"/>
<path d="M19670 9428 c-143 -11 -235 -43 -350 -119 -140 -94 -221 -236 -237
-415 -7 -85 17 -216 54 -289 33 -66 98 -151 143 -184 19 -14 41 -32 49 -39 27
-26 133 -71 219 -93 184 -47 406 -24 567 59 132 68 246 205 287 342 17 58 17
305 0 322 -7 7 -12 21 -12 33 0 26 -67 142 -110 189 -36 39 -147 112 -220 144
-100 43 -243 62 -390 50z"/>
<path d="M25180 9428 c-181 -14 -337 -84 -446 -200 -113 -119 -167 -315 -133
-480 26 -127 67 -204 159 -296 124 -125 287 -185 505 -186 207 0 368 60 500
185 97 92 138 174 159 317 26 169 -26 347 -136 467 -33 37 -152 115 -215 141
-106 45 -249 64 -393 52z"/>
<path d="M45 9178 c-3 -7 -4 -1183 -3 -2613 l3 -2600 625 0 625 0 3 590 c2
338 -1 688 -7 820 -12 247 -25 497 -41 825 -10 196 -17 341 -41 840 -22 478
-25 546 -18 565 8 23 5 29 44 -90 15 -44 31 -89 35 -100 5 -11 11 -29 13 -40
3 -11 40 -119 82 -240 42 -121 105 -308 141 -415 36 -107 69 -204 74 -215 4
-11 11 -29 13 -40 3 -11 44 -132 92 -270 47 -137 117 -342 155 -455 38 -113
108 -317 155 -455 48 -137 89 -259 92 -270 2 -11 9 -29 13 -40 5 -11 38 -108
74 -215 149 -445 234 -691 240 -697 3 -4 6 -15 6 -25 0 -11 7 -32 15 -48 l16
-30 408 0 c315 0 411 3 419 13 9 11 77 197 89 242 2 11 9 29 13 40 5 11 34 94
64 185 31 91 109 323 174 515 66 193 149 440 186 550 37 110 71 209 76 220 7
16 71 207 171 505 7 19 16 44 20 55 4 11 38 110 75 220 37 110 116 344 176
520 60 176 127 374 149 440 22 66 42 127 45 135 5 13 6 13 14 0 5 -8 4 -105
-1 -215 -5 -110 -14 -292 -19 -405 -12 -259 -26 -557 -40 -820 -18 -359 -29
-589 -41 -825 -6 -131 -9 -477 -7 -800 l3 -570 610 -3 c336 -1 620 0 633 3
l22 5 -2 2608 -3 2607 -830 0 -829 0 -17 -50 c-9 -27 -41 -124 -69 -215 -69
-215 -115 -362 -155 -485 -39 -118 -143 -445 -180 -565 -15 -47 -42 -130 -59
-185 -18 -55 -50 -154 -71 -220 -21 -66 -52 -165 -70 -220 -78 -240 -107 -331
-165 -515 -34 -107 -73 -231 -87 -275 -14 -44 -29 -89 -33 -100 -4 -11 -20
-60 -35 -110 -15 -49 -31 -99 -35 -110 -5 -11 -32 -94 -60 -185 -101 -321
-121 -380 -128 -380 -4 0 -20 42 -36 93 -16 50 -43 137 -61 192 -18 55 -61
188 -95 295 -67 212 -115 360 -165 515 -18 55 -56 174 -85 265 -28 91 -60 190
-70 220 -10 30 -42 129 -70 220 -29 91 -67 210 -85 265 -29 89 -72 222 -192
600 -20 61 -50 155 -68 210 -18 55 -56 174 -85 265 -29 91 -63 197 -75 235
-12 39 -33 104 -45 145 -13 41 -28 81 -33 88 -7 9 -185 12 -829 12 -646 0
-820 -3 -823 -12z"/>
<path d="M12160 7909 c-122 -9 -260 -38 -377 -80 -178 -63 -348 -175 -491
-323 -52 -53 -97 -94 -101 -91 -5 2 -11 48 -14 102 -10 151 -27 316 -33 322
-3 3 -254 7 -557 9 -512 2 -553 1 -564 -15 -10 -13 -13 -411 -13 -1929 0
-1052 3 -1919 6 -1928 6 -14 68 -16 604 -16 536 0 598 2 604 16 3 9 6 628 6
1376 l0 1360 37 46 c85 108 144 150 273 193 91 31 317 39 416 14 147 -37 229
-99 281 -211 60 -131 56 -52 62 -1479 l6 -1310 585 -3 c322 -1 595 0 608 3
l22 5 0 1223 c0 1162 -6 1492 -31 1632 -31 183 -43 235 -75 332 -64 197 -142
328 -269 456 -145 146 -261 205 -546 278 -31 8 -314 31 -329 27 -3 0 -52 -4
-110 -9z"/>
<path d="M17085 7909 c-111 -7 -161 -13 -320 -41 -141 -24 -429 -140 -554
-224 -24 -16 -61 -40 -82 -54 -42 -28 -213 -181 -244 -219 -60 -73 -163 -214
-180 -248 -11 -21 -32 -58 -47 -83 -76 -127 -184 -454 -208 -629 -5 -36 -14
-95 -20 -131 -18 -112 -24 -476 -11 -627 15 -181 42 -341 75 -465 9 -29 18
-64 21 -78 16 -62 93 -253 134 -330 85 -163 149 -249 295 -396 103 -103 168
-158 241 -206 164 -107 338 -182 510 -223 39 -9 79 -18 90 -21 77 -19 250 -36
420 -40 241 -7 387 11 615 75 41 12 84 25 95 30 11 5 40 17 65 27 178 73 345
187 495 338 181 182 283 359 355 621 19 68 41 244 38 300 l-3 60 -548 3 c-366
1 -554 -1 -567 -8 -16 -9 -20 -21 -20 -68 0 -158 -104 -325 -243 -391 -83 -40
-136 -53 -232 -58 -260 -15 -474 122 -553 352 -75 217 -104 696 -67 1090 27
282 58 390 150 520 98 138 219 195 415 195 107 0 202 -24 292 -75 131 -73 238
-282 238 -466 0 -63 2 -69 23 -74 12 -3 267 -4 567 -3 l545 3 3 65 c9 157 -56
455 -135 628 -18 41 -33 76 -33 79 0 2 -34 55 -74 116 -70 104 -161 209 -248
284 -234 204 -602 349 -928 368 -199 11 -248 12 -365 4z"/>
<path d="M22710 7910 c-79 -6 -122 -14 -240 -42 -62 -14 -90 -26 -198 -81
-119 -60 -145 -79 -262 -194 -52 -50 -96 -90 -98 -88 -7 7 -32 208 -32 261 0
90 40 84 -582 84 -489 0 -546 -2 -552 -16 -3 -9 -6 -1219 -6 -2690 l0 -2674
605 0 605 0 0 888 c0 489 3 892 6 895 4 4 39 -23 78 -60 127 -118 287 -210
456 -261 204 -62 506 -54 773 20 214 59 454 221 614 413 49 60 163 219 163
228 0 3 15 32 34 65 34 60 97 208 134 317 99 283 143 694 122 1144 -5 119 -14
243 -20 276 -5 33 -14 89 -20 125 -23 140 -79 350 -115 435 -7 17 -21 50 -32
75 -125 306 -360 577 -627 725 -211 115 -529 177 -806 155z m-10 -954 c78 -29
192 -114 238 -178 45 -62 98 -169 114 -228 42 -157 58 -266 68 -460 36 -674
-91 -1087 -375 -1220 -99 -46 -249 -63 -352 -39 -198 45 -277 90 -375 210 -73
91 -68 23 -68 877 l0 769 50 72 c28 39 70 85 93 103 54 39 153 85 225 103 79
20 320 14 382 -9z"/>
<path d="M27925 7909 c-71 -5 -159 -13 -195 -19 -36 -6 -94 -16 -130 -22 -90
-16 -283 -80 -387 -129 -47 -22 -96 -44 -107 -49 -47 -19 -229 -150 -310 -225
-48 -44 -120 -120 -160 -170 -67 -82 -97 -127 -182 -270 -44 -73 -122 -264
-155 -380 -46 -158 -48 -166 -60 -245 -6 -41 -16 -100 -21 -130 -6 -30 -12
-165 -15 -300 -7 -316 10 -486 74 -750 14 -58 29 -112 34 -120 4 -8 16 -40 25
-70 37 -120 131 -299 231 -439 83 -116 239 -272 365 -364 37 -27 236 -147 244
-147 2 0 37 -15 76 -33 40 -18 93 -39 118 -46 25 -7 56 -17 70 -22 22 -7 71
-19 205 -49 116 -26 343 -43 499 -37 139 5 324 25 391 41 11 3 52 12 90 21
127 30 171 45 304 107 57 26 105 48 106 48 10 0 120 72 191 125 184 136 358
331 457 515 17 30 40 73 52 95 12 22 37 83 57 135 58 152 72 198 88 275 4 22
15 76 24 120 9 44 23 152 31 240 46 503 -25 969 -205 1340 -47 98 -126 229
-168 280 -4 6 -35 44 -69 85 -65 80 -158 167 -257 240 -34 24 -63 47 -66 50
-22 25 -324 180 -351 180 -5 0 -17 4 -27 9 -30 15 -114 40 -187 56 -237 52
-441 68 -680 54z m380 -969 c100 -37 150 -73 224 -165 83 -102 154 -283 180
-460 15 -101 31 -324 31 -434 0 -156 -34 -456 -59 -531 -5 -14 -19 -56 -30
-95 -38 -124 -134 -262 -225 -326 -118 -83 -286 -122 -433 -100 -321 46 -491
255 -563 691 -21 127 -25 534 -6 688 9 73 21 154 27 180 71 311 204 491 417
568 61 21 80 23 207 20 129 -3 147 -6 230 -36z"/>
<path d="M6101 7836 c-16 -20 -10 -2779 7 -2846 6 -25 18 -82 27 -128 20 -102
66 -244 109 -337 40 -86 150 -249 202 -301 227 -225 532 -334 940 -334 186 0
303 18 454 72 30 11 64 22 75 26 19 5 113 53 165 83 70 40 145 103 237 196 90
91 103 100 107 81 9 -50 26 -237 26 -294 0 -103 -54 -95 580 -92 l555 3 0
1940 0 1940 -600 0 -600 0 -5 -1366 c-4 -1190 -7 -1368 -20 -1385 -66 -84
-103 -121 -160 -159 -178 -118 -493 -146 -677 -58 -55 26 -139 108 -163 160
-58 123 -54 23 -57 1462 -3 933 -7 1329 -15 1338 -16 20 -1171 19 -1187 -1z"/>
<path d="M13885 7838 c-3 -7 -4 -881 -3 -1943 l3 -1930 600 0 600 0 3 1930 c2
1806 1 1931 -15 1943 -13 9 -149 12 -600 12 -458 0 -585 -3 -588 -12z"/>
<path d="M19155 7828 c-3 -13 -4 -887 -3 -1943 l3 -1920 605 0 605 0 3 1923
c1 1314 -1 1929 -8 1943 -10 18 -27 19 -605 19 l-595 0 -5 -22z"/>
<path d="M24677 7838 c-16 -12 -17 -133 -15 -1943 l3 -1930 603 -3 602 -2 -2
1942 -3 1943 -585 3 c-458 2 -590 -1 -603 -10z"/>
</g>
</svg>
