<?xml version="1.0" encoding="utf-8"?>
<!-- Generator: Adobe Illustrator 19.1.0, SVG Export Plug-In . SVG Version: 6.00 Build 0)  -->
<svg version="1.1" id="Layer_1" xmlns="http://www.w3.org/2000/svg" xmlns:xlink="http://www.w3.org/1999/xlink" x="0px" y="0px"
	 viewBox="0 0 32 35" style="enable-background:new 0 0 32 35;" xml:space="preserve">
<g id="LOMlBs_1_">
	<g>
		<path d="M27.8,19.3c0,2.5,0,5.1,0,7.6c-0.1,0-0.3,0-0.4,0c-0.3,0-0.6,0-0.9,0.1c-0.3,0-0.6,0.1-0.9,0.1c-0.4,0-0.8,0-1.2,0.1
			c-0.4,0-0.8,0.2-1.1,0.4c-0.2,0.2-0.5,0.4-0.7,0.5c-0.9,0.5-1.8,0.7-2.7,1c-0.6,0.1-1.2,0.3-1.9,0.4c-0.6,0.1-1.3,0.3-1.9,0.4
			c-0.7,0.1-1.4,0.3-2.1,0.4c-0.8,0.2-1.6,0.3-2.4,0.5c-0.3,0.1-0.5,0.1-0.8,0.2c-0.2,0-0.4,0-0.5,0c-0.2-0.1-0.4-0.1-0.5-0.3
			c-0.5-0.4-0.5-1.1,0-1.5c0.2-0.2,0.4-0.3,0.7-0.3c0.5-0.1,1-0.2,1.6-0.3c0.9-0.2,1.9-0.4,2.8-0.7c0.2,0,0.3-0.1,0.4-0.2
			c0.2-0.1,0.1-0.4-0.1-0.4c-0.1,0-0.1,0-0.2,0c-0.3,0-0.6,0-0.9,0.1c-0.4,0.1-0.8,0.1-1.3,0.2c-0.3,0.1-0.7,0.1-1,0.2
			c-0.4,0.1-0.8,0.1-1.1,0.2c-0.4,0.1-0.8,0.1-1.2,0.2C9,28,8.5,28,8.1,28c-0.3,0-0.5-0.1-0.7-0.3c-0.1-0.1-0.2-0.3-0.2-0.5
			c0-0.3,0-0.6,0.2-0.8c0.2-0.2,0.4-0.3,0.6-0.4c0.3-0.1,0.6-0.1,0.9-0.2c0.3,0,0.6-0.1,0.9-0.1c0.3,0,0.6-0.1,1-0.1
			c0.3-0.1,0.7-0.1,1-0.2c0.3,0,0.6-0.1,0.9-0.1c0.3,0,0.6-0.1,0.9-0.1c0.3,0,0.6-0.1,0.8-0.1c0.1,0,0.3-0.1,0.4-0.2
			c0.1-0.1,0.1-0.3,0-0.4c0,0-0.1,0-0.1,0c-0.2,0-0.4-0.1-0.7,0c-0.4,0-0.7,0-1.1,0.1c-0.3,0-0.5,0-0.8,0c-0.4,0-0.8,0.1-1.2,0.1
			c-0.3,0-0.6,0-0.9,0c-0.4,0-0.9,0.1-1.3,0.1c-0.4,0-0.8,0-1.2,0.1c-0.3,0-0.7,0-1,0c-0.4-0.1-0.7-0.3-0.8-0.7
			c-0.1-0.6,0.1-1,0.7-1.2c0.4-0.2,0.9-0.2,1.4-0.2c0.4,0,0.8,0,1.2,0c0.1,0,0.3,0,0.4,0c0.4,0,0.8-0.1,1.2-0.1c0.3,0,0.5,0,0.8,0
			c0.4,0,0.8-0.1,1.3-0.1c0.5,0,0.9,0,1.4,0c0.2,0,0.3-0.1,0.5-0.1c0.1,0,0.2-0.1,0.2-0.2c0-0.1-0.1-0.2-0.2-0.2c0,0-0.1,0-0.1,0
			c-0.2,0-0.3-0.1-0.5-0.1c-0.2,0-0.4,0-0.6,0c-0.6,0-1.2,0-1.8,0c-0.4,0-0.8,0-1.2,0c-0.7,0-1.3-0.1-2-0.1c-0.3,0-0.6,0-0.9-0.1
			c-0.2,0-0.5-0.1-0.6-0.3c-0.1-0.2-0.2-0.4-0.2-0.6c0-0.5,0.2-0.8,0.7-1c0.3-0.1,0.6-0.1,0.9-0.1c0.5,0,1,0,1.4,0
			c1.8,0,3.6,0,5.4,0c0.1,0,0.1,0,0.2,0c0.4,0,0.7,0,1.1-0.1c0.4-0.1,0.6-0.3,0.5-0.8c0-0.2-0.2-0.4-0.3-0.6
			c-0.2-0.2-0.4-0.4-0.6-0.6c-0.4-0.4-0.8-0.8-1.2-1.2c-0.4-0.5-0.6-1.1-0.5-1.8c0.1-0.3,0.3-0.6,0.6-0.7c0.1,0,0.1,0,0.2,0
			c1.1,0.8,2.3,1.6,3.4,2.4c1.3,0.9,2.6,1.8,3.9,2.7c0.2,0.1,0.4,0.3,0.7,0.4c0.5,0.3,1.1,0.3,1.6,0.3c0.6,0,1.2-0.1,1.7-0.1
			C26.8,19.2,27.3,19.3,27.8,19.3z"/>
		<path d="M18,4c0,0,0.1,0,0.1,0c0.1,0,0.1,0,0.1,0.1c0.8,2.1,1.7,4.1,2.5,6.2c0.3,0.8,0.6,1.5,0.9,2.3c0.1,0.3,0.2,0.6,0.3,0.9
			c0.1,0.3,0.3,0.4,0.6,0.6c0.5,0.3,1.1,0.7,1.6,1c0.2,0.1,0.4,0.3,0.5,0.4c0,0,0.1,0.1,0.1,0.1c0,1,0,2,0,3c0,0,0,0,0,0.1
			c-0.3,0-0.6,0-0.8,0c-0.2,0-0.4,0-0.6-0.2c-1.3-0.8-2.5-1.7-3.8-2.5c-1.2-0.9-2.4-1.7-3.6-2.6c-0.2-0.1-0.4-0.3-0.6-0.4
			c-0.4-0.2-0.7-0.2-1.1,0c-0.5,0.3-0.7,0.8-0.8,1.3c-0.1,0.7,0.1,1.3,0.5,1.9c0.2,0.3,0.4,0.6,0.7,0.8c0.4,0.4,0.7,0.7,1.1,1.1
			c0.1,0.1,0.3,0.3,0.4,0.5c-0.1,0-0.1,0-0.1,0c-0.8,0-1.6,0-2.4,0c-0.6,0-1.1,0-1.7,0.1c-0.7,0-1.4-0.1-2-0.4
			c-1-0.5-1.9-0.9-2.9-1.3c-0.6-0.3-1.3-0.5-1.9-0.8C5,16.2,4.8,16,4.6,15.9c-0.4-0.3-0.4-0.9-0.1-1.3c0.3-0.4,0.7-0.5,1.2-0.4
			c0.3,0.1,0.7,0.3,1,0.4c0.9,0.3,1.9,0.7,2.8,1c0.3,0.1,0.5,0.2,0.8,0.3c0.1,0,0.2,0,0.3,0.1c0.2,0,0.3-0.2,0.2-0.4
			c-0.1-0.1-0.2-0.2-0.3-0.3c-0.3-0.2-0.6-0.3-1-0.5c-0.5-0.2-1-0.5-1.5-0.7c-0.9-0.4-1.8-0.9-2.7-1.3c-0.1-0.1-0.3-0.1-0.4-0.2
			c-0.4-0.2-0.7-0.4-0.8-0.8c0-0.1,0-0.3,0-0.4c0.1-0.1,0.1-0.2,0.2-0.3c0.2-0.3,0.5-0.5,0.9-0.5c0.2,0,0.5,0.1,0.7,0.2
			c0.3,0.1,0.6,0.3,0.8,0.4C7.4,11.5,8,11.7,8.6,12c0.9,0.4,1.7,0.9,2.6,1.3c0.2,0.1,0.5,0.2,0.7,0.3c0.1,0,0.2,0,0.3-0.2
			c0-0.1,0-0.3-0.2-0.4c-0.2-0.1-0.4-0.2-0.6-0.3c-0.7-0.4-1.4-0.8-2.1-1.3c-0.9-0.6-1.9-1.1-2.8-1.7C6.1,9.5,5.7,9.3,5.4,9.1
			C5,8.8,4.8,8.5,4.9,8c0.1-0.5,0.5-0.9,1-0.9c0.3,0,0.6,0.1,0.9,0.3C7.1,7.6,7.4,7.8,7.7,8c0.7,0.4,1.5,0.9,2.2,1.3
			c0.6,0.4,1.3,0.8,1.9,1.1c0.3,0.2,0.6,0.4,1,0.6c0.2,0.1,0.3,0.1,0.5,0.1c0.2,0,0.3-0.2,0.2-0.3c0-0.1-0.1-0.1-0.1-0.2
			c-0.2-0.1-0.3-0.3-0.5-0.4C12.6,10,12.3,9.9,12,9.7c-0.8-0.6-1.6-1.2-2.4-1.7C9,7.6,8.5,7.2,7.9,6.8C7.6,6.5,7.4,6.3,7.4,5.9
			c0-0.3,0.1-0.6,0.4-0.9C8.2,4.7,8.7,4.7,9.1,5c0.2,0.1,0.4,0.3,0.5,0.4c0.9,0.6,1.8,1.2,2.7,1.8c1.1,0.7,2.2,1.4,3.3,2.2
			c0.2,0.1,0.4,0.3,0.6,0.4c0.4,0.1,0.7,0,0.8-0.4c0-0.3,0-0.5,0-0.8C17,8,16.9,7.6,16.8,7.1c-0.1-0.3-0.1-0.6-0.1-0.9
			c0-0.3,0-0.5,0-0.8c0.1-0.4,0.2-0.7,0.5-1c0.2-0.2,0.4-0.3,0.7-0.4C17.9,4,17.9,4,18,4z"/>
	</g>
</g>
</svg>
