<?xml version="1.0" encoding="iso-8859-1"?>
<!-- Generator: Adobe Illustrator 16.0.0, SVG Export Plug-In . SVG Version: 6.00 Build 0)  -->
<!DOCTYPE svg PUBLIC "-//W3C//DTD SVG 1.1//EN" "http://www.w3.org/Graphics/SVG/1.1/DTD/svg11.dtd">
<svg version="1.1" id="Capa_1" xmlns="http://www.w3.org/2000/svg" xmlns:xlink="http://www.w3.org/1999/xlink" x="0px" y="0px"
	 width="858px" height="858px" viewBox="0 0 858 858" style="enable-background:new 0 0 858 858;" xml:space="preserve">
<g>
	<path d="M162.2,858c133.399,0,400.3,0,533.7,0c11,0,20-9,20-20c0-138.699,0-554.8,0-554.8H142.2c0,0,0,416.101,0,554.8
		C142.2,849.1,151.1,858,162.2,858z M544.2,390.8c0-18,14.6-32.7,32.7-32.7h0.699c18,0,32.7,14.6,32.7,32.7v359.7
		c0,18-14.6,32.699-32.7,32.699H576.9c-18,0-32.7-14.6-32.7-32.699V390.8z M396,390.8c0-18,14.6-32.7,32.7-32.7h0.7
		c18,0,32.699,14.6,32.699,32.7v359.7c0,18-14.6,32.699-32.699,32.699h-0.7c-18,0-32.7-14.6-32.7-32.699V390.8z M247.8,390.8
		c0-18,14.601-32.7,32.7-32.7h0.7c18,0,32.7,14.6,32.7,32.7v359.7c0,18-14.601,32.699-32.7,32.699h-0.7c-18,0-32.7-14.6-32.7-32.699
		V390.8z"/>
	<path d="M556.9,95V50c0-27.6-22.4-50-50-50H351.1c-27.6,0-50,22.4-50,50v45h40V60c0-11,9-20,20-20h135.7c11,0,20,9,20,20v35H556.9z
		"/>
	<path d="M117.2,155v68.2c0,11,9,20,20,20h583.6c11,0,20-9,20-20V155c0-11-9-20-20-20H137.2C126.2,135,117.2,143.9,117.2,155z"/>
</g>
<g>
</g>
<g>
</g>
<g>
</g>
<g>
</g>
<g>
</g>
<g>
</g>
<g>
</g>
<g>
</g>
<g>
</g>
<g>
</g>
<g>
</g>
<g>
</g>
<g>
</g>
<g>
</g>
<g>
</g>
</svg>
