<?xml version="1.0" encoding="iso-8859-1"?>
<!-- Generator: Adobe Illustrator 16.0.0, SVG Export Plug-In . SVG Version: 6.00 Build 0)  -->
<!DOCTYPE svg PUBLIC "-//W3C//DTD SVG 1.1//EN" "http://www.w3.org/Graphics/SVG/1.1/DTD/svg11.dtd">
<svg version="1.1" id="Capa_1" xmlns="http://www.w3.org/2000/svg" xmlns:xlink="http://www.w3.org/1999/xlink" x="0px" y="0px"
	 width="533.333px" height="533.334px" viewBox="0 0 533.333 533.334" style="enable-background:new 0 0 533.333 533.334;"
	 xml:space="preserve">
<g>
	<path d="M0,33.333V500h533.333V33.333H0z M200,333.333v-100h133.333v100H200z M333.333,366.667v100H200v-100H333.333z M333.333,100
		v100H200V100H333.333z M166.667,100v100H33.333V100H166.667z M33.333,233.333h133.333v100H33.333V233.333z M366.667,233.333H500
		v100H366.667V233.333z M366.667,200V100H500v100H366.667z M33.333,366.667h133.333v100H33.333V366.667z M366.667,466.667v-100H500
		v100H366.667z"/>
</g>
<g>
</g>
<g>
</g>
<g>
</g>
<g>
</g>
<g>
</g>
<g>
</g>
<g>
</g>
<g>
</g>
<g>
</g>
<g>
</g>
<g>
</g>
<g>
</g>
<g>
</g>
<g>
</g>
<g>
</g>
</svg>
