<svg xmlns="http://www.w3.org/2000/svg" viewBox="0 0 100 94.3"><path d="M69.5 35.9c.1 1.7.2 3.4.5 4.7 1.4-1.4 2.6-3.2 3.4-5.2-.6-.1-2.4.1-3.9.5zM60.8 43.1c0 2 1.5 1.9 2 1.9 1.1 0 2.3-.5 3.5-1.3-.4-1.8-.6-4-.8-6.4-2.8 1.3-4.7 3.5-4.7 5.8z"/><path d="M99.7 39.2c1.5-13.3-10.2-25.6-26.1-27.5-1.4-.2-2.7-.2-4.1-.2-14.2 0-26 8.8-27.4 20.9C40.7 45.7 52.4 58 68.3 59.9c1.4.2 2.7.2 4 .2 1.5 0 2.9-.1 4.3-.3 5.7 6.2 11.6 7.9 14.9 7.9 2.1 0 3.2-.7 2.4-1.3-4.8-3.8-5.9-7.6-5.6-10.6 6.3-3.7 10.6-9.6 11.4-16.6zM76.6 50.9L75 47.4c4.2-1 6.7-3 6.7-6.2 0-1.2-.4-3.9-4.2-5.1-1.5 3.5-3.9 6.7-6.6 9.1.1.5 1 2.1 1.2 2.4l-3.6 2.3c-.2-.3-1.1-1.9-1.2-2.4-1.7 1-3.7 1.6-5.6 1.6-3.1 0-5.1-2-5.1-5.2 0-4.8 3.7-8.6 8.7-10.6-.1-1.5-.1-3-.1-4.6-2.6.1-5.4.1-6.8.1l-.2-4.1h7.1c.1-1.5.1-3.2.2-4.7l4.5.3c-.1.3-.2 3.1-.3 4.2 3.8-.2 8.6-.6 12.5-1.5l.4 4.2c-3.8.7-8.9 1-13.1 1.2 0 1.2-.1 2.4-.1 3.6 1.5-.4 3.6-.6 5.2-.5.1-.5.2-1 .3-1.6l4.3 1.1-.3 1.2c5.1 1.4 7.3 4.9 7.3 8.8.1 4.9-3 8.3-9.6 9.9z"/><g><path d="M39.2 32c.1-1.3.7-3.2 1-4-2.8-.8-6.5-1.4-9.6-1.4-1.3 0-2.7.1-4.1.2C10.6 28.7-1.2 41 .3 54.3c.8 7 5.1 12.9 11.4 16.7.3 3-.7 6.7-5.6 10.6-.8.6.3 1.3 2.4 1.3 3.3 0 9.3-1.7 15-7.9 1.4.2 2.9.3 4.3.3 1.3 0 2.7-.1 4.1-.2 10.6-1.2 19.3-6.6 24-15.5C45.2 54.2 38 44.1 39.2 32zm-5.6 33.9L31.5 58h-8.1l-2.1 7.9h-5.9l8.6-30h7.3L39.7 66h-6.1z"/><path d="M27.5 40.7h-.1c-.4 1.8-.9 4.3-1.4 6.1l-1.8 6.9h6.4l-1.8-6.8c-.4-2-.9-4.4-1.3-6.2z"/></g></svg>