<svg shape-rendering="geometricPrecision" xmlns="http://www.w3.org/2000/svg" viewBox="0 0 45.2 68.3"><path d="M16.9 39.3H8c-.9.3-3 1.4-3 3.4 0 .7.3 1.2.6 1.4h6.5l4.8-4.8zm19.9 0h-8.9l4.9 4.8h6.5c.3-.3.6-.8.6-1.4 0-2.1-2.2-3.1-3.1-3.4zm2 12v2.4h-5.1v-2.4h-4v2.4h-5.2v-2.2h-4.2v2.2h-5.2v-2.4h-4v2.4H6v-2.4H1.8v5.8c0 1.7.7 3.5 3.4 4.1 2.7.7 12.6 3 14.4 3.4 2.4.6 2.9 2.5 2.9 2.5s.5-1.9 2.9-2.5c1.8-.4 11.7-2.8 14.4-3.4 2.7-.7 3.4-2.5 3.4-4.1v-5.8h-4.4zM18.6 26.1v1.3h.9v-1.5h2.3v1.5H23v-1.5h2.3v1.5h.9v-1.3h.5l-4.3-3.4-4.3 3.4h.5zM22.4 22.6c.2 0 .4-.2.4-.4s-.2-.4-.4-.4-.4.2-.4.4.2.4.4.4m.7-2.2s-.2.1-.3.1h-.1v-.2c0-.1.1-.3.1-.3l.1-.2-.2.1s-.2.1-.3.1c-.1 0-.3-.1-.3-.1l-.2-.1.1.2s.1.2.1.3v.2H22c-.1 0-.3-.1-.3-.1h-.1v1l.1-.1s.1-.1.2-.1h.1v.1c0 .1-.1.4-.1.4v.1c.1-.1.3-.2.5-.2s.4.1.5.2v-.1s-.1-.3-.1-.4v-.1h.1c.1 0 .2.1.2.1l.1.1v-1h-.1zM9.9 27.5c.3 0 .5.2.5.5s-.2.5-.5.5-.5-.2-.5-.5.2-.5.5-.5m.2 1.2h-.5v1.6h.5v-1.6zm24.8-1.2c.3 0 .5.2.5.5s-.2.5-.5.5-.5-.2-.5-.5.2-.5.5-.5m.2 1.2h-.4v1.6h.4v-1.6zM42.7.5v.7h-1V.5h-1.4v.7h-1V.5h-1.5v1.7h.7v2.7h-1.1v1.6h-2.1V4.9h-1.1V2.2h.7V.5h-1.5v.7h-1V.5H31v.7h-1V.5h-1.5v1.7h.7v2.7h-1.1v1.6H26V4.9h-1.1V2.2h.7V.5h-1.5v.7h-1V.5h-1.4v.7h-1V.5h-1.5v1.7h.7v2.7h-1.1v1.6h-2.1V4.9h-1.1V2.2h.7V.5h-1.5v.7h-1V.5h-1.4v.7h-1V.5H9.9v1.7h.7v2.7H9.5v1.6H7.4V4.9H6.3V2.2H7V.5H5.5v.7h-1V.5H3.1v.7h-1V.5H.6v1.7h.7v4.4l2.5 2.7v4.3H2.5V18h39.7v-4.4H41V9.3l2.5-2.7V2.2h.7V.5h-1.5z"/><path d="M27.7 30.7v4h10.6l-3-4h-7.6zm-10.6 0H9.5l-3 4h10.6v-4zm12.7 13.8c-.2.1-.7.4-1.4.4s-1.1-.2-1.4-.3c-.2.1-.7.3-1.4.3s-1.2-.2-1.5-.4c-.2.2-.7.4-1.7.3-1 0-1.5-.2-1.7-.3-.3.1-.8.4-1.5.4s-1.2-.2-1.4-.3c-.2.1-.7.3-1.4.3s-1.2-.3-1.4-.4c-.2.1-.7.2-1.2.3v5.7h2.1v2.4h3.7v-2.2h5.6v2.2h3.7v-2.4H31v-5.7c-.5 0-1-.2-1.2-.3zM17 49.1h-1.6v-2.3c.2-.8 1.3-.8 1.6 0v2.3zm3.1 0h-2v-2.5c.3-.9 1.6-.9 2 0v2.5zm3.3 0h-2v-2.5c.3-.9 1.6-.9 2 0v2.5zm3.2 0h-2v-2.5c.3-.9 1.6-.9 2 0v2.5zm2.8 0h-1.6v-2.3c.2-.8 1.3-.8 1.6 0v2.3zm-17-4.5H5.8v6h.8V53h3.7v-2.4h2.9v-5.7c-.3-.1-.6-.2-.8-.3zM8 47.8H6.9v-1.3c.2-.5.9-.5 1.1 0v1.3zm2.1 0H9v-1.3c.2-.5.9-.5 1.1 0v1.3zm2.2 0h-1.1v-1.3c.2-.5.9-.5 1.1 0v1.3zm20-3.2c-.2.1-.5.2-.8.2v5.7h2.9v2.4h3.7v-2.4h.9v-6l-6.7.1zm1.2 3.2h-1.1v-1.3c.2-.5.9-.5 1.1 0v1.3zm2.2 0h-1.1v-1.3c.2-.5.9-.5 1.1 0v1.3zm2.2 0h-1.1v-1.3c.2-.5.9-.5 1.1 0v1.3zM8.4 35.3v3.5h8.7v-3.5H8.4zm2.7 2.4H10v-1.3c.2-.5.9-.5 1.1 0v1.3zm2.2 0h-1.1v-1.3c.2-.5.9-.5 1.1 0v1.3zm2.2 0h-1.1v-1.3c.2-.5.9-.5 1.1 0v1.3zm12.2-2.4v3.5h8.7v-3.5h-8.7zm2.7 2.4h-1.1v-1.3c.2-.5.9-.5 1.1 0v1.3zm2.2 0h-1.1v-1.3c.2-.5.9-.5 1.1 0v1.3zm2.2 0h-1.1v-1.3c.2-.5.9-.5 1.1 0v1.3zm-19.3 6.5c.2.1.5.2.9.2.8 0 1.2-.3 1.2-.3h.1l3.9-8.4-6.1 8.5zm2.7 0c.2.1.5.1 1 .1.7 0 1.2-.3 1.3-.4l1.5-8.6-3.8 8.9zm2.9 0c.2.1.6.2 1.3.2.8 0 1.2-.1 1.4-.2l-1.4-8.9-1.3 8.9c-.1 0 0 0 0 0zm-8.4-.1c.2.1.4.2.7.2.5 0 1.1-.2 1.4-.3h.1l5.9-8-8.1 8.1zm16.6.1l-6.1-8.5 3.9 8.4h.1s.4.3 1.2.3c.4 0 .7-.1.9-.2zm-2.7 0l-3.8-8.8 1.5 8.6c.1.1.6.4 1.3.4.4 0 .8-.1 1-.2zm5.5-.1L23.9 36l5.9 8h.1c.3.1.9.3 1.4.3.4 0 .6-.1.8-.2z"/><path d="M17.6 29.5v9.1l4.5-4.4-.7-.7 1-1 1 1-.7.7 4.5 4.4v-9.1h-9.6zm3.2 2.3h-1.1v-1.3c.2-.5.9-.5 1.1 0v1.3zm2.1 0h-1.1v-1.3c.2-.5.9-.5 1.1 0v1.3zm2.2 0H24v-1.3c.2-.5.9-.5 1.1 0v1.3zM16.7 28.9h11.4v-2.3h-1.4v1.3h-1.9v-1.4h-1.3v1.4h-2.2v-1.4H20v1.4h-2v-1.3h-1.3v2.3z"/><path d="M22.5 67.6l-.1-.4s-.5-1.9-2.8-2.4c-1.9-.4-11.7-2.7-14.4-3.4-2.9-.6-3.5-2.6-3.5-4.2V17.9h41.4v.1c0 37.4 0 37.4.2 39.2 0 1.5-.6 3.5-3.5 4.2-1.5.3-5.2 1.2-8.4 2-2.7.6-5.2 1.2-6 1.4-2.3.6-2.8 2.4-2.8 2.4l-.1.4zM1.9 18.1v39.1c0 2.2 1.1 3.5 3.3 4 2.7.7 12.5 3 14.4 3.4 1.9.5 2.6 1.8 2.9 2.3.2-.6 1-1.8 2.9-2.3.8-.2 3.3-.8 6-1.4 3.3-.8 6.9-1.7 8.4-2 2.7-.7 3.3-2.6 3.3-4-.2-1.8-.2-1.8-.2-39.1h-41z"/></svg>