<?xml version="1.0" encoding="utf-8"?>
<!-- Generator: Adobe Illustrator 19.0.0, SVG Export Plug-In . SVG Version: 6.00 Build 0)  -->
<svg version="1.1" id="Layer_1" xmlns="http://www.w3.org/2000/svg" xmlns:xlink="http://www.w3.org/1999/xlink" x="0px" y="0px"
	 viewBox="0 0 239.4 66.9" enable-background="new 0 0 239.4 66.9" xml:space="preserve">
<g id="XMLID_2_">
	<g id="XMLID_54_">
		<polygon id="XMLID_72_" fill="#1D1D1B" points="74.5,41.6 74.5,34.4 66.2,34.4 66.2,41.6 63.6,41.6 63.6,25.1 66.2,25.1 
			66.2,32.1 74.5,32.1 74.5,25.1 77.2,25.1 77.2,41.6 74.5,41.6 		"/>
		<polygon id="XMLID_71_" fill="#1D1D1B" points="83.3,41.6 83.3,25.1 92.1,25.1 91.3,27.4 85.9,27.4 85.9,32.1 91.3,32.1 
			91.3,34.3 85.9,34.3 85.9,39.4 92.2,39.4 92.2,41.6 83.3,41.6 		"/>
		<polygon id="XMLID_70_" fill="#1D1D1B" points="97.6,41.6 97.6,25.1 100.2,25.1 100.2,39.4 106.3,39.4 106.3,41.6 97.6,41.6 		"/>
		<path id="XMLID_69_" fill="#1D1D1B" d="M114.9,41.9c-2.3,0-3.8-0.8-4.9-1.4l1.1-2c0.8,0.6,2.1,1.2,3.7,1.2c1.3,0,2.9-0.6,2.9-2.1
			c0-2.5-4-3-6-5.3c-0.7-0.8-1.1-1.7-1.1-2.9c0-2.4,1.9-4.4,5.2-4.4c1.8,0,3.1,0.5,3.9,0.9l0,2.5c-1.1-0.7-2.4-1.1-3.8-1.1
			c-1.4,0-2.6,0.6-2.6,1.9c0,3.3,7.2,3.2,7.2,8.2C120.5,40.1,118,41.9,114.9,41.9L114.9,41.9z"/>
		<polygon id="XMLID_68_" fill="#1D1D1B" points="125.7,41.6 125.7,25.1 128.4,25.1 128.4,41.6 125.7,41.6 		"/>
		<path id="XMLID_67_" fill="#1D1D1B" d="M146.5,41.6l-7.8-10.1c-0.8-1-1.2-1.7-1.6-2.4h0c0,0.6,0,1.4,0,2.2v10.4h-2.6V25.1h2.7
			l7.5,9.8c0.9,1.2,1.4,1.8,1.7,2.5h0c0-0.7,0-1.5,0-2.3v-9.9h2.6v16.5H146.5L146.5,41.6z"/>
		<path id="XMLID_66_" fill="#1D1D1B" d="M162.1,41.9c-5,0-8.3-3.5-8.3-8.3c0-5,3.6-8.6,9-8.6c2.1,0,3.7,0.5,4.8,0.9l0,2.5
			c-1.2-0.6-2.8-1.2-4.6-1.2c-4.3,0-6.3,2.7-6.3,6.1c0,3.7,2.3,6.3,6.1,6.3c1.2,0,2.2-0.2,2.8-0.6v-5.7h2.6v7
			C166.8,41.1,164.6,41.9,162.1,41.9L162.1,41.9z"/>
		<path id="XMLID_62_" fill="#1D1D1B" d="M178.9,34.4h-2.2v5h2.1c2.1,0,3.2-1,3.2-2.6C182,35.4,180.8,34.4,178.9,34.4L178.9,34.4z
			 M176.7,27.4v4.7h1.9c1.2,0,2.4-0.9,2.4-2.4c0-1.4-0.8-2.3-2.6-2.3H176.7L176.7,27.4z M178.9,41.6h-4.9V25.1h5
			c3.2,0,4.6,2.1,4.6,4.1c0,1.5-0.7,2.9-2.1,3.5v0c1.7,0.4,3.2,2,3.2,4C184.7,39,183.2,41.6,178.9,41.6L178.9,41.6z"/>
		<path id="XMLID_59_" fill="#1D1D1B" d="M196.9,27.3c-3.3,0-5.6,2.4-5.6,6.2c0,3.8,2.2,6.2,5.6,6.2c3.3,0,5.5-2.4,5.5-6.2
			C202.5,29.8,200.4,27.3,196.9,27.3L196.9,27.3z M191,27.4c1.5-1.5,3.6-2.4,6-2.4c2.6,0,4.8,1,6.3,2.6c1.4,1.5,2.1,3.5,2.1,5.9
			c0,2.5-0.8,4.7-2.4,6.2c-1.5,1.5-3.5,2.3-6,2.3c-2.3,0-4.3-0.7-5.7-2c-1.7-1.5-2.6-3.8-2.6-6.3C188.6,31.1,189.5,28.9,191,27.4
			L191,27.4z"/>
		<path id="XMLID_56_" fill="#1D1D1B" d="M214.2,27.4h-1.5v5.5h1.6c1.7,0,3-1.3,3-2.9C217.2,28.6,216.4,27.4,214.2,27.4L214.2,27.4z
			 M218.8,41.6c-2.6-4.3-3.9-6.5-4.5-6.7h-1.5v6.7h-2.6V25.1h4.1c4.1,0,5.7,2.1,5.7,4.6c0,2.3-1.5,3.7-3.1,4.4v0
			c0.7,0.3,2.4,3.3,5,7.5H218.8L218.8,41.6z"/>
		<path id="XMLID_55_" fill="#1D1D1B" d="M233.3,41.9c-5,0-8.3-3.5-8.3-8.3c0-5,3.6-8.6,9-8.6c2.1,0,3.7,0.5,4.8,0.9l0,2.5
			c-1.2-0.6-2.8-1.2-4.6-1.2c-4.3,0-6.3,2.7-6.3,6.1c0,3.7,2.3,6.3,6.1,6.3c1.2,0,2.2-0.2,2.8-0.6v-5.7h2.6v7
			C238.1,41.1,235.9,41.9,233.3,41.9L233.3,41.9z"/>
	</g>
	<g id="XMLID_3_">
		<path id="XMLID_53_" fill="#FFFFFF" d="M42.5,17.5H21.9l0,0h0l0,0H1.2c0,37.5,0,37.5,0,39.3c0,1.7,0.7,3.5,3.4,4.2
			c2.7,0.7,12.6,3,14.4,3.5c2.4,0.6,2.8,2.3,2.9,2.5v0l0,0l0,0v0c0-0.1,0.5-1.9,2.9-2.5c1.8-0.4,11.8-2.8,14.4-3.5
			c2.7-0.7,3.4-2.5,3.4-4.2C42.5,55,42.5,55,42.5,17.5L42.5,17.5z"/>
		<path id="XMLID_52_" fill="#E20613" stroke="#FFFFFF" stroke-width="5.756000e-02" d="M16.3,38.9h-9c-0.9,0.3-3,1.4-3,3.4
			c0,0.7,0.3,1.2,0.6,1.5h6.5L16.3,38.9z"/>
		<polygon id="XMLID_51_" fill="#E20613" stroke="#FFFFFF" stroke-width="5.756000e-02" points="21.7,33.7 21.8,33.8 21.9,33.8 
			22,33.7 26.7,38.2 26.7,29 17,29 17,38.2 		"/>
		<path id="XMLID_50_" fill="#E20613" stroke="#FFFFFF" stroke-width="5.756000e-02" d="M11.9,44.2H5.3v6h0.8v2.4h3.7v-2.5h2.9v-5.7
			C12.3,44.4,12.1,44.3,11.9,44.2z"/>
		<path id="XMLID_49_" fill="#E20613" stroke="#FFFFFF" stroke-width="5.756000e-02" d="M29.3,44.1c-0.2,0.1-0.7,0.4-1.4,0.4
			c0,0,0,0,0,0c-0.7,0-1.1-0.2-1.4-0.3c-0.2,0.1-0.7,0.3-1.4,0.3c-0.7,0-1.2-0.2-1.5-0.4c-0.2,0.2-0.8,0.4-1.8,0.4
			c-1,0-1.5-0.2-1.8-0.4c-0.3,0.1-0.8,0.4-1.5,0.4c-0.7,0-1.2-0.2-1.4-0.3c-0.2,0.1-0.7,0.3-1.4,0.3c-0.7,0-1.2-0.3-1.4-0.4
			c-0.2,0.1-0.7,0.2-1.2,0.3v5.7h2.1v2.4H19v-2.3h5.6v2.3h3.7v-2.4h2.1v-5.7C30,44.4,29.5,44.2,29.3,44.1z"/>
		<path id="XMLID_48_" fill="#E20613" stroke="#FFFFFF" stroke-width="5.756000e-02" d="M36.3,38.9h-9l4.9,4.8h6.5
			c0.3-0.3,0.6-0.8,0.6-1.5C39.4,40.2,37.2,39.2,36.3,38.9z"/>
		<path id="XMLID_47_" fill="#E20613" stroke="#FFFFFF" stroke-width="5.756000e-02" d="M31,44.4v5.7h2.9v2.5h3.7v-2.3v-0.1h0.9v-6
			h-6.6C31.6,44.3,31.4,44.4,31,44.4z"/>
		<path id="XMLID_46_" fill="#E20613" stroke="#FFFFFF" stroke-width="5.756000e-02" d="M38.3,50.9v2.4h-5.1v-2.5h-4.1v2.4h-5.2V51
			h-4.2v2.3h-5.2v-2.4h-4.1v2.5H5.4v-2.4H1.2c0,4.5,0,5,0,5.9c0,1.7,0.7,3.5,3.4,4.2c2.7,0.7,12.6,3,14.4,3.5
			c2.4,0.6,2.9,2.5,2.9,2.5s0.5-1.9,2.9-2.5c1.8-0.4,11.8-2.8,14.4-3.5c2.7-0.7,3.4-2.5,3.4-4.2c0-0.9,0-1.3,0-5.9H38.3z"/>
		<polygon id="XMLID_45_" fill="#E20613" stroke="#FFFFFF" stroke-width="5.756000e-02" points="18,25.6 18,26.9 18.9,26.9 
			18.9,25.5 21.3,25.5 21.3,26.9 22.4,26.9 22.4,25.5 24.8,25.5 24.8,26.9 25.7,26.9 25.7,25.6 26.1,25.6 21.9,22.3 21.9,22.3 
			21.9,22.3 17.6,25.6 		"/>
		<path id="XMLID_44_" fill="#E20613" d="M21.9,22.1c0.2,0,0.4-0.2,0.4-0.4c0-0.2-0.2-0.4-0.4-0.4c-0.2,0-0.4,0.2-0.4,0.4
			C21.5,21.9,21.6,22.1,21.9,22.1"/>
		<path id="XMLID_43_" fill="#E20613" d="M22.6,19.9c0,0-0.2,0.1-0.3,0.1l0,0c0,0-0.1,0-0.1,0c0,0,0,0,0,0c0-0.1,0-0.2,0-0.2
			c0-0.1,0.1-0.3,0.1-0.3l0.1-0.2l-0.2,0.1c0,0-0.2,0.1-0.3,0.1c-0.1,0-0.3-0.1-0.3-0.1l-0.2-0.1l0.1,0.2c0,0,0.1,0.2,0.1,0.3
			c0,0.1,0,0.2,0,0.2c0,0,0,0,0,0c0,0-0.1,0-0.1,0c-0.1,0-0.3-0.1-0.3-0.1l-0.1,0v0.5c0,0.1,0,0.4,0,0.4l0,0.1l0.1-0.1
			c0,0,0.1-0.1,0.2-0.1c0,0,0.1,0,0.1,0c0,0,0,0,0,0c0,0,0,0.1,0,0.1c0,0.1-0.1,0.4-0.1,0.4l0,0.1l0,0c0.1-0.1,0.3-0.2,0.5-0.2
			c0.2,0,0.4,0.1,0.5,0.2l0,0l0-0.1c0,0-0.1-0.3-0.1-0.4c0,0,0-0.1,0-0.1c0,0,0,0,0,0c0,0,0.1,0,0.1,0c0.1,0,0.2,0.1,0.2,0.1
			l0.1,0.1l0-0.1c0,0,0-0.2,0-0.4v-0.5L22.6,19.9L22.6,19.9z"/>
		<path id="XMLID_42_" fill="#E20613" d="M9.3,27c0.3,0,0.5,0.2,0.5,0.5c0,0.3-0.2,0.5-0.5,0.5c-0.3,0-0.5-0.2-0.5-0.5
			C8.8,27.2,9,27,9.3,27"/>
		<polygon id="XMLID_41_" fill="#E20613" points="9.6,28.3 9.1,28.3 9.1,29.9 9.6,29.9 9.6,28.3 		"/>
		<path id="XMLID_40_" fill="#E20613" d="M34.4,27c0.3,0,0.5,0.2,0.5,0.5c0,0.3-0.2,0.5-0.5,0.5c-0.3,0-0.5-0.2-0.5-0.5
			C33.9,27.2,34.1,27,34.4,27"/>
		<polygon id="XMLID_39_" fill="#E20613" points="34.6,28.3 34.2,28.3 34.2,29.9 34.6,29.9 34.6,28.3 		"/>
		<polygon id="XMLID_38_" fill="#E20613" points="42.2,0 42.2,0.6 41.2,0.6 41.2,0 39.8,0 39.8,0.6 38.8,0.6 38.8,0 37.3,0 
			37.3,1.7 38,1.7 38,4.4 36.9,4.4 36.9,6 34.8,6 34.8,4.4 33.7,4.4 33.7,1.7 34.4,1.7 34.4,0 32.9,0 32.9,0.6 31.9,0.6 31.9,0 
			30.5,0 30.5,0.6 29.4,0.6 29.4,0 28,0 28,1.7 28.7,1.7 28.7,4.4 27.6,4.4 27.6,6 25.5,6 25.5,4.4 24.4,4.4 24.4,1.7 25,1.7 25,0 
			23.6,0 23.6,0.6 22.6,0.6 22.6,0 21.1,0 21.1,0.6 20.1,0.6 20.1,0 18.7,0 18.7,1.7 19.3,1.7 19.3,4.4 18.2,4.4 18.2,6 16.1,6 
			16.1,4.4 15.1,4.4 15.1,1.7 15.7,1.7 15.7,0 14.3,0 14.3,0.6 13.3,0.6 13.3,0 11.8,0 11.8,0.6 10.8,0.6 10.8,0 9.3,0 9.3,1.7 
			10,1.7 10,4.4 8.9,4.4 8.9,6 6.8,6 6.8,4.4 5.7,4.4 5.7,1.7 6.4,1.7 6.4,0 4.9,0 4.9,0.6 3.9,0.6 3.9,0 2.5,0 2.5,0.6 1.5,0.6 
			1.5,0 0,0 0,1.7 0.7,1.7 0.7,6.1 3.2,8.8 3.2,13.1 2,13.1 2,17.5 41.8,17.5 41.8,13.1 40.5,13.1 40.5,8.8 43,6.1 43,1.7 43.7,1.7 
			43.7,0 42.2,0 		"/>
		<rect id="XMLID_37_" x="27.2" y="34.8" fill="#E20613" stroke="#FFFFFF" stroke-width="5.756000e-02" width="8.7" height="3.5"/>
		<polygon id="XMLID_36_" fill="#E20613" stroke="#FFFFFF" stroke-width="5.756000e-02" points="27.2,30.2 27.2,34.3 37.8,34.3 
			34.8,30.2 		"/>
		<polygon id="XMLID_35_" fill="#E20613" stroke="#FFFFFF" stroke-width="5.756000e-02" points="16.5,30.2 8.9,30.2 5.9,34.3 
			16.5,34.3 		"/>
		<rect id="XMLID_34_" x="7.8" y="34.8" fill="#E20613" stroke="#FFFFFF" stroke-width="5.756000e-02" width="8.7" height="3.5"/>
		<path id="XMLID_33_" fill="#FFFFFF" d="M16.4,48.8h-1.6v-2.3c0.2-0.8,1.3-0.8,1.6,0V48.8L16.4,48.8z"/>
		<path id="XMLID_32_" fill="#FFFFFF" d="M22.8,48.8h-2v-2.5c0.3-1,1.7-1,2,0V48.8L22.8,48.8z"/>
		<path id="XMLID_31_" fill="#FFFFFF" d="M19.6,48.8h-2v-2.5c0.3-1,1.7-1,2,0V48.8L19.6,48.8z"/>
		<path id="XMLID_30_" fill="#FFFFFF" d="M27.3,48.8h1.6v-2.3c-0.2-0.8-1.3-0.8-1.6,0V48.8L27.3,48.8z"/>
		<path id="XMLID_29_" fill="#FFFFFF" d="M24.1,48.8h2v-2.5c-0.3-1-1.7-1-2,0V48.8L24.1,48.8z"/>
		<path id="XMLID_28_" fill="#FFFFFF" stroke="#FFFFFF" stroke-width="5.756000e-02" d="M7.4,47.4H6.3v-1.3c0.2-0.5,0.9-0.5,1.1,0
			V47.4L7.4,47.4z"/>
		<path id="XMLID_27_" fill="#FFFFFF" stroke="#FFFFFF" stroke-width="5.756000e-02" d="M9.6,47.4H8.5v-1.3c0.2-0.5,0.9-0.5,1.1,0
			V47.4L9.6,47.4z"/>
		<path id="XMLID_26_" fill="#FFFFFF" stroke="#FFFFFF" stroke-width="5.756000e-02" d="M11.8,47.4h-1.1v-1.3c0.2-0.5,0.9-0.5,1.1,0
			V47.4L11.8,47.4z"/>
		<path id="XMLID_25_" fill="#FFFFFF" stroke="#FFFFFF" stroke-width="5.756000e-02" d="M33,47.4h-1.1v-1.3c0.2-0.5,0.9-0.5,1.1,0
			V47.4L33,47.4z"/>
		<path id="XMLID_24_" fill="#FFFFFF" stroke="#FFFFFF" stroke-width="5.756000e-02" d="M35.2,47.4h-1.1v-1.3c0.2-0.5,0.9-0.5,1.1,0
			V47.4L35.2,47.4z"/>
		<path id="XMLID_23_" fill="#FFFFFF" stroke="#FFFFFF" stroke-width="5.756000e-02" d="M37.4,47.4h-1.1v-1.3c0.2-0.5,0.9-0.5,1.1,0
			V47.4L37.4,47.4z"/>
		<path id="XMLID_22_" fill="#FFFFFF" stroke="#FFFFFF" stroke-width="5.756000e-02" d="M10.5,37.3H9.4V36c0.2-0.5,0.9-0.5,1.1,0
			V37.3L10.5,37.3z"/>
		<path id="XMLID_21_" fill="#FFFFFF" stroke="#FFFFFF" stroke-width="5.756000e-02" d="M12.7,37.3h-1.1V36c0.2-0.5,0.9-0.5,1.1,0
			V37.3L12.7,37.3z"/>
		<path id="XMLID_20_" fill="#FFFFFF" stroke="#FFFFFF" stroke-width="5.756000e-02" d="M14.9,37.3h-1.1V36c0.2-0.5,0.9-0.5,1.1,0
			V37.3L14.9,37.3z"/>
		<path id="XMLID_19_" fill="#FFFFFF" stroke="#FFFFFF" stroke-width="5.756000e-02" d="M29.9,37.3h-1.1V36c0.2-0.5,0.9-0.5,1.1,0
			V37.3L29.9,37.3z"/>
		<path id="XMLID_18_" fill="#FFFFFF" stroke="#FFFFFF" stroke-width="5.756000e-02" d="M32.1,37.3H31V36c0.2-0.5,0.9-0.5,1.1,0
			V37.3L32.1,37.3z"/>
		<path id="XMLID_17_" fill="#FFFFFF" stroke="#FFFFFF" stroke-width="5.756000e-02" d="M34.3,37.3h-1.1V36c0.2-0.5,0.9-0.5,1.1,0
			V37.3L34.3,37.3z"/>
		<path id="XMLID_16_" fill="#FFFFFF" stroke="#FFFFFF" stroke-width="5.756000e-02" d="M20.2,31.4h-1.1v-1.3c0.2-0.5,0.9-0.5,1.1,0
			V31.4L20.2,31.4z"/>
		<path id="XMLID_15_" fill="#FFFFFF" stroke="#FFFFFF" stroke-width="5.756000e-02" d="M22.4,31.4h-1.1v-1.3c0.2-0.5,0.9-0.5,1.1,0
			V31.4L22.4,31.4z"/>
		<path id="XMLID_14_" fill="#FFFFFF" stroke="#FFFFFF" stroke-width="5.756000e-02" d="M24.6,31.4h-1.1v-1.3c0.2-0.5,0.9-0.5,1.1,0
			V31.4L24.6,31.4z"/>
		<path id="XMLID_13_" fill="#E20613" stroke="#FFFFFF" stroke-width="5.756000e-02" d="M14.9,43.8c0.2,0.1,0.5,0.2,0.9,0.2l0,0
			c0.8,0,1.2-0.3,1.2-0.3l0,0l0,0l0.1,0l3.9-8.4L14.9,43.8C14.9,43.8,14.9,43.8,14.9,43.8L14.9,43.8z"/>
		<path id="XMLID_12_" fill="#E20613" stroke="#FFFFFF" stroke-width="5.756000e-02" d="M17.7,43.8c0.2,0.1,0.5,0.1,1,0.1l0,0
			c0.7,0,1.2-0.3,1.3-0.4l0,0c0,0,0,0,0,0l0,0l0,0l1.5-8.6L17.7,43.8C17.6,43.8,17.6,43.8,17.7,43.8L17.7,43.8z"/>
		<path id="XMLID_11_" fill="#E20613" stroke="#FFFFFF" stroke-width="5.756000e-02" d="M20.6,43.8c0.2,0.1,0.6,0.2,1.3,0.2l0,0
			c0.8,0,1.2-0.1,1.4-0.2l0,0l-1.4-8.9L20.6,43.8C20.5,43.8,20.5,43.8,20.6,43.8L20.6,43.8z"/>
		<path id="XMLID_10_" fill="#E20613" stroke="#FFFFFF" stroke-width="5.756000e-02" d="M12.1,43.7c0.2,0.1,0.4,0.2,0.7,0.2l0,0
			c0.5,0,1.1-0.2,1.4-0.3l0,0c0.1,0,0.1,0,0.1,0l0,0l0,0l5.9-8L12.1,43.7C12.1,43.7,12.1,43.7,12.1,43.7L12.1,43.7z"/>
		<path id="XMLID_9_" fill="#E20613" stroke="#FFFFFF" stroke-width="5.756000e-02" d="M28.8,43.8C28.8,43.8,28.8,43.8,28.8,43.8
			l-6.1-8.6l3.9,8.4l0.1,0l0,0l0,0c0,0,0.4,0.3,1.2,0.3l0,0C28.2,44,28.5,43.9,28.8,43.8L28.8,43.8z"/>
		<path id="XMLID_8_" fill="#E20613" stroke="#FFFFFF" stroke-width="5.756000e-02" d="M26,43.8C26.1,43.8,26.1,43.8,26,43.8
			L22.2,35l1.5,8.6l0,0l0,0c0,0,0,0,0,0l0,0c0.1,0.1,0.6,0.4,1.3,0.4l0,0C25.5,44,25.8,43.9,26,43.8L26,43.8z"/>
		<path id="XMLID_7_" fill="#E20613" stroke="#FFFFFF" stroke-width="5.756000e-02" d="M31.6,43.7C31.6,43.7,31.6,43.7,31.6,43.7
			l-8.2-8.2l5.9,8l0,0l0,0c0,0,0,0,0.1,0l0,0c0.3,0.1,0.9,0.3,1.4,0.3l0,0C31.2,43.9,31.4,43.8,31.6,43.7L31.6,43.7z"/>
		<polygon id="XMLID_6_" fill="#FFFFFF" points="22.8,33 21.9,34 20.9,33 21.9,32 22.8,33 		"/>
		<polygon id="XMLID_5_" fill="#E20613" points="16.1,28.5 27.6,28.5 27.6,26.1 26.2,26.1 26.2,27.4 24.2,27.4 24.2,26 23,26 
			23,27.4 20.7,27.4 20.7,26 19.5,26 19.5,27.4 17.5,27.4 17.5,26.1 16.1,26.1 16.1,28.5 		"/>
		<path id="XMLID_4_" fill="none" stroke="#1D1D1B" stroke-width="0.1317" d="M42.5,17.5H21.9l0,0h0l0,0H1.2c0,37.5,0,37.5,0,39.3
			c0,1.7,0.7,3.5,3.4,4.2c2.7,0.7,12.6,3,14.4,3.5c2.4,0.6,2.9,2.5,2.9,2.5s0.5-1.9,2.9-2.5c1.8-0.4,11.8-2.8,14.4-3.5
			c2.7-0.7,3.4-2.5,3.4-4.2C42.5,55,42.5,55,42.5,17.5L42.5,17.5z"/>
	</g>
</g>
</svg>
