<svg xmlns="http://www.w3.org/2000/svg" version="1.0" viewBox="0 0 512 512">
  <path d="M471.4 2.4c-6.1 2.9-6.3 3-20.2 27.6-15.1 26.7-14.2 24-9.8 29.2 4.5 5.2 10.9 18.2 12.7 25.8.7 3 1.3 9.6 1.3 14.7 0 5 .1 9.1.2 9 1.7-1.9 44.5-79.3 45.4-82.1 1.4-4.5.7-10.2-1.9-15.4-2.4-4.7-4.5-6.6-10.1-9.1-5.9-2.7-11.4-2.6-17.6.3zM382 51.7c-14.2 2.7-29.6 15.9-35.1 30.1-2.7 7.1-3.6 20.3-1.9 28.1 8.1 36.3 53.1 50.1 80 24.5 9-8.6 13-16.3 15-29 3.7-22.9-12.5-46.9-35.5-52.9-5.5-1.4-16.9-1.8-22.5-.8zm-85.5 78.9c-2.2.8-66.5 40.7-143 88.7C19.1 303.6 14.4 306.7 12.2 311c-3 5.8-2.6 12.5 1 17.2 1.4 1.8 20.4 22.7 42.1 46.5 34.2 37.2 40.2 43.3 44.1 44.8 5.3 2 9.8 1.5 14.7-1.8 3-2 224.9-273.8 224.9-275.5 0-.8-15-9.5-20.2-11.7-4.7-1.9-16.9-1.9-22.3.1z"/>
  <path d="M239.8 288.8c-63.6 78.1-114.3 139.8-116.4 141.1-7.6 5.2-17.9 7.3-25.4 5.1l-3.5-1-18 18.6c-9.9 10.3-19 20.4-20.3 22.5-9.8 16.2 4.6 38.5 23.8 36.7 9.7-1 10.7-1.8 65.9-58.7l52.4-53.9 24.7-38.1c13.5-20.9 24.9-38.4 25.3-38.7.6-.6 14.7 7.2 14.7 8.2 0 .9 11 69.9 11.5 72.1.4 1.8-4.2 6.1-30.7 28.1-36 29.8-36.4 30.3-39 36-6.1 13.6 1.5 29.6 15.9 33.8 7.4 2.2 14.8.9 21.4-3.8 2.5-1.8 21.2-17.1 41.6-34.1 39.2-32.6 41.4-34.8 42.8-44.3.4-2.5-1.3-15.7-4.9-37.9l-5.5-34 11.5-19.4c6.3-10.6 11.3-19.5 11.1-19.7-.2-.2-5.9-.8-12.8-1.3-13.9-1-17.9-2.3-24-7.8-6.5-5.9-9.3-12.3-9.4-21.4 0-7.3.4-8.5 10.4-33.7 5.8-14.4 10.7-26 10.9-25.7.2.2-1.3 12.5-3.3 27.3-2.2 16-3.5 28.4-3.1 30.4 1.1 6 5.9 12.3 11.2 14.9 4.7 2.2 6.5 2.4 40.9 3.6 19.8.8 41 1.2 47.2 1.1 10.6-.3 11.3-.5 15.5-3.3 6.7-4.8 8.9-9.5 8.6-18.1-.4-9.3-3.6-14.5-11.1-17.9-4.9-2.3-7.1-2.5-35.7-3.6-16.8-.6-30.7-1.3-30.9-1.5-.2-.2.9-9.8 2.5-21.3 1.5-11.6 3-20.9 3.1-20.7.2.1.7 6.5 1.1 14 .6 10.2 1.2 14 2.3 14.7.8.5 5.2.9 9.9.9h8.5l7.7-13.3c10.4-17.8 11.2-19.8 11.1-28.2 0-8.1-2.1-14.4-6.5-19.8-1.6-2.1-2.6-4.2-2.2-4.7.5-.4 4.1-2.8 7.9-5.4l7-4.7-7.5.7c-13.4 1.1-29.3-2.7-39.8-9.7-2.4-1.6-4.6-2.9-5-2.9-.4.1-51.4 62.5-113.4 138.8z"/>
</svg>
