<?xml version="1.0" encoding="utf-8"?><svg version="1.1" id="Layer_1" xmlns="http://www.w3.org/2000/svg" xmlns:xlink="http://www.w3.org/1999/xlink" x="0px" y="0px" viewBox="0 0 101.61 122.88" style="enable-background:new 0 0 101.61 122.88" xml:space="preserve"><g><path d="M55.28,15.28v30h41.89c2.45,0,4.44,1.99,4.44,4.44c0,2.45-1.99,4.44-4.44,4.44H4.44C1.99,54.17,0,52.18,0,49.73 c0-2.45,1.99-4.44,4.44-4.44H46.4V15.07L31.12,30.22c-1.73,1.72-4.54,1.72-6.26-0.02c-1.72-1.73-1.72-4.54,0.02-6.26L47.71,1.29 l0,0l0.01-0.01c0.05-0.05,0.09-0.09,0.14-0.13l0.01-0.01l0.07-0.06l0.02-0.02l0.06-0.05l0.03-0.02l0.02-0.02l0.07-0.05l0,0 l0.06-0.05l0.02-0.02l0.02-0.01l0.07-0.05l0.02-0.01l0.07-0.05l0,0l0.07-0.04l0.02-0.01l0.02-0.01l0.07-0.04l0.02-0.01l0.03-0.02 l0.06-0.04l0,0l0.07-0.04l0.02-0.01l0.08-0.04l0,0l0.08-0.04l0.02-0.01l0.06-0.03l0.03-0.01l0.02-0.01l0.08-0.03l0.02-0.01 l0.08-0.03l0.02-0.01l0.08-0.03l0.01,0c0.06-0.02,0.13-0.04,0.19-0.06l0.01,0l0.08-0.02l0.02-0.01l0.02-0.01l0.08-0.02l0.1-0.02 l0.01,0L50,0.08l0.01,0l0.07-0.01l0.03-0.01l0.02,0l0.08-0.01l0.02,0l0.08-0.01l0,0l0.09-0.01l0.01,0l0.02,0l0.08-0.01l0.01,0 c0.07,0,0.13-0.01,0.2-0.01l0.01,0l0.09,0h0.02l0.08,0l0.02,0l0.02,0l0.08,0l0.02,0l0.08,0.01l0,0l0.09,0.01l0.01,0 c0.1,0.01,0.21,0.02,0.31,0.04l0.09,0.02l0.02,0c0.1,0.02,0.2,0.04,0.3,0.07l0,0l0.08,0.02l0.03,0.01l0.02,0.01l0.08,0.02 l0.02,0.01l0.08,0.03l0.02,0.01l0.08,0.03l0.01,0c0.1,0.04,0.19,0.08,0.28,0.12l0.01,0.01c0.06,0.03,0.12,0.06,0.17,0.09l0.02,0.01 l0.02,0.01L53,0.56l0.02,0.01l0.07,0.04c0.05,0.03,0.11,0.06,0.16,0.1l0.03,0.02l0.02,0.01l0.07,0.05l0.01,0 c0.06,0.04,0.11,0.08,0.16,0.12l0.01,0.01L53.64,1h0l0.08,0.07l0.01,0.01l0.05,0.04l0.05,0.05l0,0l0.06,0.06l0.02,0.02l0.06,0.06 l0,0l0.01,0.01L76.2,23.97c1.71,1.74,1.69,4.55-0.05,6.26c-1.74,1.71-4.55,1.69-6.26-0.05L55.28,15.28L55.28,15.28z M97.16,67.86 c2.45,0,4.44,1.99,4.44,4.44c0,2.45-1.99,4.44-4.44,4.44H55.28v30.86l14.61-14.9c1.71-1.74,4.52-1.77,6.26-0.05 c1.74,1.71,1.77,4.52,0.05,6.26l-22.21,22.65l-0.01,0.01l0,0l-0.06,0.06l-0.02,0.02l-0.06,0.06l0,0l-0.05,0.05l-0.05,0.04 l-0.01,0.01l-0.08,0.07h0l-0.08,0.07l-0.01,0.01c-0.05,0.04-0.11,0.08-0.16,0.12l-0.01,0l-0.07,0.05l-0.02,0.01l-0.03,0.02 c-0.05,0.03-0.1,0.07-0.16,0.1l-0.07,0.04L53,122.32l-0.07,0.04l-0.02,0.01l-0.02,0.01c-0.06,0.03-0.12,0.06-0.17,0.09l-0.01,0.01 c-0.09,0.04-0.19,0.08-0.28,0.12l-0.01,0l-0.08,0.03l-0.02,0.01l-0.08,0.03l-0.02,0.01l-0.08,0.02l-0.02,0.01l-0.03,0.01 l-0.08,0.02l0,0c-0.1,0.03-0.2,0.05-0.3,0.07l-0.02,0l-0.09,0.02c-0.1,0.02-0.21,0.03-0.31,0.04l-0.01,0l-0.09,0.01l0,0l-0.08,0.01 l-0.02,0l-0.08,0l-0.02,0l-0.02,0l-0.08,0h-0.02l-0.09,0l-0.01,0c-0.07,0-0.13,0-0.2-0.01l-0.01,0l-0.08-0.01l-0.02,0l-0.01,0 l-0.09-0.01l0,0l-0.08-0.01l-0.02,0l-0.08-0.01l-0.02,0l-0.03-0.01l-0.07-0.01l-0.01,0l-0.1-0.02l-0.01,0l-0.1-0.02l-0.08-0.02 l-0.02-0.01l-0.02-0.01l-0.08-0.02l-0.01,0c-0.06-0.02-0.13-0.04-0.19-0.06l-0.01,0l-0.08-0.03l-0.02-0.01l-0.08-0.03l-0.02-0.01 l-0.08-0.03l-0.02-0.01l-0.03-0.01l-0.06-0.03l-0.02-0.01l-0.08-0.04l0,0l-0.08-0.04l-0.02-0.01l-0.07-0.04l0,0l-0.06-0.04 l-0.03-0.02l-0.02-0.01l-0.07-0.04l-0.02-0.01l-0.02-0.01l-0.07-0.04l0,0l-0.07-0.05l-0.02-0.01l-0.07-0.05l-0.02-0.01l-0.02-0.02 l-0.06-0.05l0,0l-0.07-0.05l-0.02-0.02l-0.03-0.02l-0.06-0.05l-0.02-0.02l-0.07-0.06l-0.01-0.01c-0.05-0.04-0.1-0.09-0.14-0.13 l-0.01-0.01l0,0L24.87,98.94c-1.73-1.72-1.74-4.53-0.02-6.26c1.72-1.73,4.53-1.74,6.26-0.02l15.28,15.15V76.74H4.44 C1.99,76.74,0,74.75,0,72.3c0-2.45,1.99-4.44,4.44-4.44H97.16L97.16,67.86z M53.25,122.16c-0.05,0.03-0.1,0.07-0.16,0.1 L53.25,122.16L53.25,122.16z"/></g></svg>