<svg xmlns="http://www.w3.org/2000/svg" viewBox="0 0 24.334 24.334"><g fill="#030104"><path d="M10.295 0H.935A.936.936 0 0 0 0 .936v9.36c0 .516.42.935.936.935h9.36c.516 0 .935-.418.935-.935V.935A.936.936 0 0 0 10.296 0zM23.398 0h-9.36a.936.936 0 0 0-.935.936v9.36c0 .516.42.935.936.935h9.358c.517 0 .936-.418.936-.935V.935A.936.936 0 0 0 23.398 0zm-.936 9.36h-7.487V1.87h7.487V9.36zM10.295 13.103H.935A.936.936 0 0 0 0 14.04v9.358c0 .517.42.936.936.936h9.36c.516 0 .935-.42.935-.936v-9.36a.935.935 0 0 0-.935-.935zm-5.875 9.36c.16-.277.26-.594.26-.937a1.872 1.872 0 0 0-1.872-1.872c-.343 0-.66.1-.936.26v-2.39c.276.16.593.26.936.26A1.872 1.872 0 0 0 4.68 15.91c0-.342-.1-.66-.26-.935h2.39a1.85 1.85 0 0 0-.26.936c0 1.035.84 1.873 1.873 1.873.343 0 .66-.1.936-.26v2.39a1.85 1.85 0 0 0-.937-.26 1.872 1.872 0 0 0-1.872 1.873c0 .343.1.66.26.936H4.42zM23.398 13.103h-9.36a.936.936 0 0 0-.935.936v9.358c0 .516.42.935.936.935h9.358c.516 0 .935-.42.935-.936v-9.36a.934.934 0 0 0-.935-.934zm-8.423 6.003l4.13-4.13h2.034l-6.165 6.163v-2.034zm0-4.13h1.484l-1.485 1.483v-1.485zm7.487 1.322v2.032l-4.13 4.132h-2.034l6.164-6.164zm0 6.164h-1.485l1.485-1.485v1.485z"/><circle cx="5.616" cy="18.718" r="1.872"/></g></svg>